<svg id="Group_148989" data-name="Group 148989" xmlns="http://www.w3.org/2000/svg" xmlns:xlink="http://www.w3.org/1999/xlink" width="70.375" height="70.348" viewBox="0 0 70.375 70.348">
  <defs>
    <clipPath id="clip-path">
      <rect id="Rectangle_8653" data-name="Rectangle 8653" width="70.375" height="70.348" fill="#fafafa"/>
    </clipPath>
  </defs>
  <g id="Group_148988" data-name="Group 148988" clip-path="url(#clip-path)">
    <path id="Path_164161" data-name="Path 164161" d="M0,34.594c1.391-2,2.835-3.96,4.158-6a7.571,7.571,0,0,1,5.565-3.847c-.428-1.047-.91-2.018-1.225-3.04-.562-1.824.126-3.594.408-5.372.259-1.636.625-3.255.907-4.888a1.739,1.739,0,0,1,1.53-1.636c2.5-.434,4.988-.886,7.471-1.383a7.032,7.032,0,0,1,5.371,1.086,4.494,4.494,0,0,0,.408.223c.019.009.056-.018.177-.062.3-2.769,2.116-4.474,4.366-5.895C30.83,2.709,32.472,1.554,34.109.4a1.66,1.66,0,0,1,2.146-.01C38,1.61,39.741,2.839,41.54,3.978,43.7,5.345,45.3,7.071,45.607,9.691c1.052-.429,2.025-.91,3.049-1.226,1.825-.563,3.595.135,5.373.408,1.637.251,3.255.626,4.887.912a1.745,1.745,0,0,1,1.628,1.54c.422,2.4.863,4.8,1.352,7.191a7.478,7.478,0,0,1-1.376,6.114c.257.075.447.145.642.186a6.781,6.781,0,0,1,4.326,2.763c1.548,2.2,3.042,4.446,4.567,6.667a1.471,1.471,0,0,1,0,1.827c-1.524,2.221-3.015,4.465-4.568,6.667a6.784,6.784,0,0,1-4.826,2.844c.43,1.063.905,2.038,1.22,3.062.551,1.793-.121,3.533-.4,5.28-.267,1.667-.629,3.318-.925,4.98a1.7,1.7,0,0,1-1.464,1.59q-3.646.655-7.282,1.368A7.342,7.342,0,0,1,45.7,60.49c-.073.278-.132.471-.174.667A7.161,7.161,0,0,1,42.447,65.7c-2.24,1.537-4.464,3.1-6.695,4.645H34.623a4.342,4.342,0,0,0-.408-.358c-2.146-1.469-4.3-2.925-6.441-4.4a6.948,6.948,0,0,1-2.927-4.434c-.042-.2-.108-.388-.182-.651a7.322,7.322,0,0,1-6.025,1.368c-2.456-.48-4.915-.946-7.379-1.384-.986-.175-1.3-.824-1.459-1.7-.339-1.909-.725-3.81-1.074-5.718-.275-1.505-.715-3.022-.22-4.546.321-.99.8-1.929,1.226-2.938a7.743,7.743,0,0,1-5.629-3.937c-1.3-2.02-2.732-3.954-4.107-5.925V34.594m46.36.6c-.96-.924-1.7-1.693-2.5-2.39a2.5,2.5,0,0,1-.882-2.161c.044-1.054.011-2.111.011-3.28-1.2,0-2.291-.028-3.377.009a2.341,2.341,0,0,1-2-.816c-.735-.843-1.522-1.642-2.414-2.594-.917.974-1.7,1.774-2.45,2.612a2.3,2.3,0,0,1-1.913.8c-1.115-.031-2.232-.008-3.445-.008a33.41,33.41,0,0,1-.034,3.491,3.468,3.468,0,0,1-.756,1.806A32.251,32.251,0,0,1,24,35.089c.843.814,1.452,1.494,2.156,2.057A3.237,3.237,0,0,1,27.405,40.2c-.077.888-.015,1.788-.015,2.758,1.182,0,2.213.038,3.239-.011a2.59,2.59,0,0,1,2.242.918c.712.815,1.5,1.566,2.335,2.429.863-.9,1.627-1.647,2.324-2.448a2.5,2.5,0,0,1,2.154-.9c1.079.046,2.162.011,3.3.011,0-1.294-.081-2.428.033-3.541a3.288,3.288,0,0,1,.728-1.722c.751-.867,1.654-1.6,2.612-2.5M35.142,20.283a1.857,1.857,0,0,0,.286-.182q3.595-3.59,7.181-7.188a1.3,1.3,0,0,0,.348-.537,5.2,5.2,0,0,0-2.112-5.624C39.167,5.6,37.466,4.476,35.806,3.3a.912.912,0,0,0-1.238.012c-1.694,1.186-3.414,2.333-5.123,3.5a4.37,4.37,0,0,0-2.034,3.322c-.147,1.492-.075,2.854,1.343,3.806a9.471,9.471,0,0,1,1.274,1.249l5.114,5.1M20.373,35.174c-2.551-2.555-5.028-5.038-7.51-7.515a1.044,1.044,0,0,0-.384-.254,5.258,5.258,0,0,0-5.546,1.882c-1.221,1.746-2.382,3.534-3.616,5.27a.91.91,0,0,0,.031,1.238c1.183,1.7,2.324,3.421,3.5,5.122a5.205,5.205,0,0,0,5.583,2.006,1.349,1.349,0,0,0,.531-.359c2.446-2.431,4.885-4.869,7.411-7.389M35.2,49.935c-2.563,2.57-5.021,5.031-7.473,7.5a1.2,1.2,0,0,0-.3.46,5.213,5.213,0,0,0,1.835,5.48q2.688,1.9,5.447,3.688a1.08,1.08,0,0,0,.963,0q2.755-1.8,5.446-3.692a5.221,5.221,0,0,0,1.829-5.482,1.2,1.2,0,0,0-.3-.461c-2.447-2.471-4.9-4.936-7.441-7.492M50.055,35.081a1.882,1.882,0,0,0,.186.308q3.586,3.6,7.182,7.187a1.3,1.3,0,0,0,.535.35,5.192,5.192,0,0,0,5.63-2.1c1.152-1.68,2.276-3.378,3.445-5.045a.906.906,0,0,0,.015-1.235c-1.162-1.634-2.288-3.294-3.395-4.966a4.585,4.585,0,0,0-3.421-2.206c-1.6-.194-2.973.039-3.933,1.477a2.91,2.91,0,0,1-.4.4l-5.85,5.824M45.691,24.655c3.645,0,7.148,0,10.651,0a1,1,0,0,0,.449-.086,5.311,5.311,0,0,0,2.541-5q-.555-3.327-1.231-6.632a1.108,1.108,0,0,0-.712-.691c-2.141-.44-4.3-.808-6.444-1.212a4.272,4.272,0,0,0-3.664,1,3.812,3.812,0,0,0-1.637,3.405c.162,3.023.047,6.06.047,9.218m0,21.006c0,3.652,0,7.156,0,10.659a.973.973,0,0,0,.092.447,5.275,5.275,0,0,0,5.092,2.518q3.28-.547,6.538-1.216a1.109,1.109,0,0,0,.685-.718c.439-2.141.812-4.3,1.21-6.445a4.436,4.436,0,0,0-1.059-3.741,3.408,3.408,0,0,0-3.448-1.519,9.969,9.969,0,0,1-1.688.015H45.692M24.684,24.653c0-3.641,0-7.143,0-10.646a1.023,1.023,0,0,0-.084-.45,5.281,5.281,0,0,0-5.088-2.531c-2.155.365-4.3.8-6.452,1.172-.574.1-.75.41-.842.935-.33,1.876-.664,3.753-1.067,5.614a4.682,4.682,0,0,0,1.509,4.914c.413.355.86.938,1.3.948,3.531.078,7.064.044,10.725.044m0,21.145c-.165-.07-.22-.114-.275-.114q-5.166-.015-10.331-.02a1.12,1.12,0,0,0-.459.061,5.384,5.384,0,0,0-2.6,4.888q.561,3.373,1.257,6.723a1.193,1.193,0,0,0,.765.742q3.209.668,6.445,1.2a5.23,5.23,0,0,0,5.1-2.5,1.16,1.16,0,0,0,.1-.537c.006-3.474,0-6.947,0-10.443m2.773-29.2v7.9a4.573,4.573,0,0,0,5.663-2.208l-5.663-5.687m9.791,5.652A4.574,4.574,0,0,0,42.9,24.506V16.557l-5.648,5.689M22.269,33.1a4.6,4.6,0,0,0,2.287-5.642H16.65L22.269,33.1m25.72-.085,5.647-5.6h-7.8c-.643,2.481.053,4.4,2.15,5.6M22.451,37.314,16.867,42.89H24.52a4.519,4.519,0,0,0-2.069-5.576M53.771,42.9,48.1,37.215A4.611,4.611,0,0,0,45.832,42.9ZM27.459,45.744v7.981l5.685-5.758c-2.119-2.412-2.555-2.591-5.685-2.223m15.457,7.949v-7.86a4.566,4.566,0,0,0-5.654,2.19l5.654,5.67" transform="translate(0.001 0)" fill="#fafafa"/>
  </g>
</svg>
