<svg id="Group_148630" data-name="Group 148630" xmlns="http://www.w3.org/2000/svg" width="46.973" height="68.488" viewBox="0 0 46.973 68.488">
  <g id="Group_148398" data-name="Group 148398">
    <path id="Path_159776" data-name="Path 159776" d="M132.36,158.6a23.467,23.467,0,1,1,23.492-23.422A23.5,23.5,0,0,1,132.36,158.6m.013-3.292" transform="translate(-108.879 -90.111)" fill="#fff"/>
    <path id="Path_159777" data-name="Path 159777" d="M221.986,9.359q0-3.653,0-7.306A1.848,1.848,0,0,1,222.9.184,1.577,1.577,0,0,1,225.18,1.2a4.776,4.776,0,0,1,.1,1.143q.01,6.97,0,13.94c0,.192.006.385-.008.577a1.7,1.7,0,0,1-1.643,1.779A1.661,1.661,0,0,1,222,16.857c-.036-2.5-.011-5-.011-7.5Z" transform="translate(-200.151 0.001)" fill="#fff"/>
    <path id="Path_159778" data-name="Path 159778" d="M288.1,47.259c0,1.12.021,2.241-.006,3.361-.028,1.158-.659,1.887-1.6,1.914-.97.029-1.67-.733-1.683-1.93q-.037-3.36,0-6.721c.013-1.18.632-1.863,1.6-1.884,1.026-.022,1.649.659,1.678,1.9.026,1.12.006,2.24.006,3.361" transform="translate(-250.842 -33.891)" fill="#fff"/>
    <path id="Path_159779" data-name="Path 159779" d="M159.113,47.212c0-1.12-.024-2.241.006-3.36.032-1.177.649-1.848,1.631-1.852s1.63.658,1.646,1.837q.047,3.408,0,6.817a1.654,1.654,0,1,1-3.277.015c-.032-1.151-.007-2.3-.007-3.456" transform="translate(-149.41 -33.893)" fill="#fff"/>
    <path id="Path_159780" data-name="Path 159780" d="M208.4,163.384c.014,1.327-.582,2.076-1.5,2.151-.952.078-1.646-.612-1.75-1.739a3.664,3.664,0,1,0-4.777,3.571,12.8,12.8,0,0,0,1.993.281,6.906,6.906,0,0,1,6,6,6.8,6.8,0,0,1-4.113,7.138c-1.01.4-1.5.819-1.374,1.95a1.335,1.335,0,0,1-1.138,1.556,2.367,2.367,0,0,1-1.625-.457,1.785,1.785,0,0,1-.459-1.385c.1-.977-.321-1.347-1.16-1.745a6.624,6.624,0,0,1-3.927-5.939,1.61,1.61,0,0,1,1.491-1.878c1.007-.069,1.653.564,1.757,1.721a3.662,3.662,0,0,0,7.254.556,3.578,3.578,0,0,0-2.313-4.061,7.535,7.535,0,0,0-1.79-.3A6.9,6.9,0,0,1,198.8,157.55c.64-.264.917-.56.841-1.245a3.038,3.038,0,0,1,.1-1.045,1.485,1.485,0,0,1,1.627-1.21c.807.045,1.538.531,1.465,1.365-.123,1.4.613,1.819,1.727,2.335a6.57,6.57,0,0,1,3.85,5.633" transform="translate(-177.999 -124.312)" fill="#160034"/>
  </g>
</svg>
