<svg id="Group_148629" data-name="Group 148629" xmlns="http://www.w3.org/2000/svg" width="70.185" height="66.213" viewBox="0 0 70.185 66.213">
  <g id="Group_148633" data-name="Group 148633" transform="translate(0 0)">
    <path id="Path_159770" data-name="Path 159770" d="M397.948,188.7a2.011,2.011,0,0,1-2.369.952c-3.768-.725-7.553-1.365-11.331-2.038a1.586,1.586,0,0,1-1.472-1.776,1.557,1.557,0,0,1,2.018-1.212c2.636.458,5.267.946,7.9,1.423,1.167.212,2.328.484,3.5.621a2.1,2.1,0,0,1,1.75,1.117Z" transform="translate(-327.763 -156.484)" fill="#fff"/>
    <path id="Path_159771" data-name="Path 159771" d="M319.994,0c1.289.63,1.393.813,1.215,2.6q-.511,5.168-1.065,10.331a1.46,1.46,0,0,1-1.656,1.388,1.482,1.482,0,0,1-1.328-1.65c.355-3.571.758-7.137,1.085-10.71A1.987,1.987,0,0,1,319.691,0Z" transform="translate(-272.146)" fill="#fff"/>
    <path id="Path_159773" data-name="Path 159773" d="M365.609,82.816a4.6,4.6,0,0,1,.9-1.194c3.419-2.293,6.865-4.545,10.316-6.79a1.521,1.521,0,1,1,1.651,2.553q-5.116,3.388-10.261,6.732a1.676,1.676,0,0,1-2.6-1.3" transform="translate(-313.226 -63.213)" fill="#fff"/>
    <path id="Subtraction_3" data-name="Subtraction 3" d="M10.208,0,0,22.119,9.087,35.74l24.734-.91Z" transform="translate(15.094 11.406)" fill="#fafafa"/>
    <path id="Rectangle_8479" data-name="Rectangle 8479" d="M0,0H16.682a0,0,0,0,1,0,0V12.2a6,6,0,0,1-6,6H6a6,6,0,0,1-6-6V0A0,0,0,0,1,0,0Z" transform="translate(15.088 33.229) rotate(56)" fill="#fafafa"/>
    <path id="Rectangle_8480" data-name="Rectangle 8480" d="M0,0H7.583a0,0,0,0,1,0,0V12.891a3.791,3.791,0,0,1-3.791,3.791h0A3.791,3.791,0,0,1,0,12.891V0A0,0,0,0,1,0,0Z" transform="matrix(0.809, -0.588, 0.588, 0.809, 15.096, 52.717)" fill="#fafafa"/>
    <g id="Ellipse_2954" data-name="Ellipse 2954" transform="matrix(0.829, -0.559, 0.559, 0.829, 20.955, 14.333)" fill="#160034" stroke="#fafafa" stroke-width="1">
      <ellipse cx="5.826" cy="21.024" rx="5.826" ry="21.024" stroke="none"/>
      <ellipse cx="5.826" cy="21.024" rx="5.326" ry="20.524" fill="none"/>
    </g>
    <path id="Rectangle_8481" data-name="Rectangle 8481" d="M0,0H7.583a0,0,0,0,1,0,0V12.891a3.791,3.791,0,0,1-3.791,3.791h0A3.791,3.791,0,0,1,0,12.891V0A0,0,0,0,1,0,0Z" transform="translate(26.678 38.977) rotate(-120)" fill="#fafafa"/>
  </g>
</svg>
