<svg xmlns="http://www.w3.org/2000/svg" width="162.252" height="35.222" viewBox="0 0 162.252 35.222">
  <g id="Layer_2" data-name="Layer 2" transform="translate(-0.008 0.016)">
    <g id="Layer_1" data-name="Layer 1" transform="translate(0.008 -0.016)">
      <path id="Path_160472" data-name="Path 160472" d="M163.561,26.542a3.356,3.356,0,0,1-1.109,2.256,3.569,3.569,0,0,1-2.429.843,3.472,3.472,0,0,1-2.747-1.168,4.518,4.518,0,0,1-1.016-3.116,4.714,4.714,0,0,1,1.016-3.188A3.416,3.416,0,0,1,160.022,21a3.679,3.679,0,0,1,2.413.789,3.155,3.155,0,0,1,1.126,2.135h-1.714a1.534,1.534,0,0,0-.57-1.058,1.915,1.915,0,0,0-1.243-.39,1.726,1.726,0,0,0-1.5.764,3.585,3.585,0,0,0-.537,2.1,3.4,3.4,0,0,0,.537,2.055,1.735,1.735,0,0,0,1.49.743,1.8,1.8,0,0,0,1.243-.434,1.763,1.763,0,0,0,.57-1.168Z" transform="translate(-114.858 -15.225)" fill="#fff"/>
      <path id="Path_160473" data-name="Path 160473" d="M195.455,29.7a3.72,3.72,0,0,1-2.87-1.151,4.408,4.408,0,0,1-1.065-3.116,4.573,4.573,0,0,1,1.065-3.188,3.652,3.652,0,0,1,2.87-1.168,3.692,3.692,0,0,1,2.873,1.168,4.559,4.559,0,0,1,1.063,3.188,4.42,4.42,0,0,1-1.063,3.116A3.708,3.708,0,0,1,195.455,29.7Zm0-1.453a1.971,1.971,0,0,0,1.635-.747,3.292,3.292,0,0,0,.593-2.081,3.47,3.47,0,0,0-.593-2.13,2.123,2.123,0,0,0-3.27,0,3.419,3.419,0,0,0-.591,2.13,3.214,3.214,0,0,0,.589,2.081,1.967,1.967,0,0,0,1.637.738Z" transform="translate(-140.75 -15.284)" fill="#fff"/>
      <path id="Path_160474" data-name="Path 160474" d="M232.323,30.174H230.73V22h2.5l1.492,6.488L236.2,22h2.469v8.174h-1.593V23.3l-1.534,6.878H233.86l-1.537-7.032Z" transform="translate(-169.562 -15.969)" fill="#fff"/>
      <path id="Path_160475" data-name="Path 160475" d="M271.75,30.174V22h3.422a3.072,3.072,0,0,1,2.125.656,2.417,2.417,0,0,1,.731,1.9,2.642,2.642,0,0,1-.731,2.013,2.976,2.976,0,0,1-2.125.687c-.661,0-1.231,0-1.714.014v2.9Zm1.707-4.332h1.427a1.593,1.593,0,0,0,1.077-.315,1.214,1.214,0,0,0,.357-.958,1.07,1.07,0,0,0-.357-.876,1.672,1.672,0,0,0-1.077-.292h-1.427Z" transform="translate(-199.81 -15.969)" fill="#fff"/>
      <path id="Path_160476" data-name="Path 160476" d="M304.3,30.174V22h6.021v1.453h-4.314v1.74h4v1.4h-4v2.13h4.505v1.45Z" transform="translate(-223.747 -15.969)" fill="#fff"/>
      <path id="Path_160477" data-name="Path 160477" d="M336.286,30.174V23.443H333.81V22h6.654v1.453H338v6.722Z" transform="translate(-245.412 -15.969)" fill="#fff"/>
      <path id="Path_160478" data-name="Path 160478" d="M366.06,30.174V22h1.707v8.174Z" transform="translate(-269.52 -15.969)" fill="#fff"/>
      <path id="Path_160479" data-name="Path 160479" d="M379.656,30.174V23.443H377.18V22h6.656v1.453h-2.471v6.722Z" transform="translate(-277.297 -15.969)" fill="#fff"/>
      <path id="Path_160480" data-name="Path 160480" d="M409.43,30.174V22h1.71v8.174Z" transform="translate(-301.451 -15.969)" fill="#fff"/>
      <path id="Path_160481" data-name="Path 160481" d="M420.8,22h1.817l1.8,6.252,1.8-6.252h1.761L425.2,30.174h-1.635Z" transform="translate(-309.315 -15.969)" fill="#fff"/>
      <path id="Path_160482" data-name="Path 160482" d="M456.15,30.174V22h6.021v1.453h-4.314v1.74h4v1.4h-4v2.13h4.505v1.45Z" transform="translate(-335.4 -15.969)" fill="#fff"/>
      <path id="Path_160483" data-name="Path 160483" d="M489.933,30.174H488.34V22h1.789l3.284,5.741V22h1.6v8.174h-1.7l-3.377-5.893Z" transform="translate(-359.017 -15.969)" fill="#fff"/>
      <path id="Path_160484" data-name="Path 160484" d="M524,30.174V22h6.021v1.453H525.7v1.74h4v1.4h-4v2.13h4.5v1.45Z" transform="translate(-383.248 -15.969)" fill="#fff"/>
      <path id="Path_160485" data-name="Path 160485" d="M559.55,23.67a1.222,1.222,0,0,0-.512-.934,2.023,2.023,0,0,0-1.217-.346,1.621,1.621,0,0,0-1.021.287.958.958,0,0,0-.367.8.621.621,0,0,0,.383.568,7.748,7.748,0,0,0,1.607.467,5.674,5.674,0,0,1,2.392.934,2.128,2.128,0,0,1,.6,1.663,2.17,2.17,0,0,1-.908,1.831,3.978,3.978,0,0,1-2.457.689,3.739,3.739,0,0,1-2.429-.719,2.669,2.669,0,0,1-.934-2.046h1.635a1.278,1.278,0,0,0,.467,1.007,1.971,1.971,0,0,0,1.242.35,2.6,2.6,0,0,0,1.28-.264.818.818,0,0,0,.467-.733.759.759,0,0,0-.332-.68,4.767,4.767,0,0,0-1.383-.453,7.4,7.4,0,0,1-2.6-.934,1.83,1.83,0,0,1-.654-1.56,2.305,2.305,0,0,1,.888-1.908,3.6,3.6,0,0,1,2.336-.7,3.356,3.356,0,0,1,2.238.726,2.719,2.719,0,0,1,.955,1.955Z" transform="translate(-406.77 -15.215)" fill="#fff"/>
      <path id="Path_160486" data-name="Path 160486" d="M592.1,23.724a1.222,1.222,0,0,0-.511-.934,2.023,2.023,0,0,0-1.217-.346,1.621,1.621,0,0,0-1.021.287.957.957,0,0,0-.367.8.621.621,0,0,0,.383.568,7.746,7.746,0,0,0,1.607.467,5.692,5.692,0,0,1,2.392.934,2.117,2.117,0,0,1,.6,1.663A2.17,2.17,0,0,1,593.06,29a3.966,3.966,0,0,1-2.457.689,3.727,3.727,0,0,1-2.429-.719,2.669,2.669,0,0,1-.934-2.046h1.635a1.277,1.277,0,0,0,.467,1.007,1.971,1.971,0,0,0,1.243.35,2.6,2.6,0,0,0,1.28-.264.817.817,0,0,0,.467-.733A.754.754,0,0,0,592,26.6a4.766,4.766,0,0,0-1.383-.453,7.4,7.4,0,0,1-2.6-.934,1.83,1.83,0,0,1-.654-1.56,2.305,2.305,0,0,1,.864-1.892,3.607,3.607,0,0,1,2.336-.7,3.356,3.356,0,0,1,2.237.726,2.718,2.718,0,0,1,.955,1.955Z" transform="translate(-431.718 -15.266)" fill="#fff"/>
      <path id="Path_160487" data-name="Path 160487" d="M156.26,81.5V74.9h4.7v1.168h-3.319v1.5h2.891V78.7h-2.891v2.8Z" transform="translate(-114.95 -54.57)" fill="#f5f7f8"/>
      <path id="Path_160488" data-name="Path 160488" d="M186.35,81.5V74.9h1.378v6.6Z" transform="translate(-137.218 -54.57)" fill="#f5f7f8"/>
      <path id="Path_160489" data-name="Path 160489" d="M205.289,81.5H204V74.9h1.446l2.649,4.631V74.9h1.292v6.6h-1.373l-2.723-4.755Z" transform="translate(-150.037 -54.57)" fill="#f5f7f8"/>
      <path id="Path_160490" data-name="Path 160490" d="M238.819,81.518v-5.43h-2V74.92h5.372v1.168H240.2v5.43Z" transform="translate(-174.176 -54.585)" fill="#f5f7f8"/>
      <path id="Path_160491" data-name="Path 160491" d="M269.85,81.5V74.9h4.858v1.168h-3.48v1.4h3.228V78.6h-3.228v1.719h3.634v1.168Z" transform="translate(-198.49 -54.57)" fill="#f5f7f8"/>
      <path id="Path_160492" data-name="Path 160492" d="M307.24,78.584a2.7,2.7,0,0,1-.895,1.819,2.873,2.873,0,0,1-1.96.673,2.8,2.8,0,0,1-2.214-.934,3.684,3.684,0,0,1-.822-2.513,3.782,3.782,0,0,1,.822-2.569,2.775,2.775,0,0,1,2.214-.948,2.966,2.966,0,0,1,1.946.635,2.541,2.541,0,0,1,.909,1.724h-1.383a1.243,1.243,0,0,0-.467-.848,1.546,1.546,0,0,0-1-.315,1.4,1.4,0,0,0-1.2.612,2.906,2.906,0,0,0-.434,1.7,2.773,2.773,0,0,0,.434,1.656,1.4,1.4,0,0,0,1.2.6,1.443,1.443,0,0,0,1-.348,1.42,1.42,0,0,0,.467-.934Z" transform="translate(-221.6 -53.951)" fill="#f5f7f8"/>
      <path id="Path_160493" data-name="Path 160493" d="M337.39,81.5V74.9h1.378v2.473h2.569V74.9h1.385v6.6h-1.385v-2.99h-2.569V81.5Z" transform="translate(-248.145 -54.57)" fill="#f5f7f8"/>
      <path id="Path_160494" data-name="Path 160494" d="M32.2,7.144a2.058,2.058,0,1,0,.5.507l3.926-3.926a2.058,2.058,0,1,0-.5-.507Z" transform="translate(-22.199 0.016)" fill="#00c48a"/>
      <path id="Path_160495" data-name="Path 160495" d="M7.7,17.326a2.048,2.048,0,0,0,2.852-2.854l3.926-3.931a2.048,2.048,0,0,0,2.847-2.847l3.933-3.926A2.051,2.051,0,0,0,23.884.638h0a2.051,2.051,0,0,0-3.13,2.625L16.828,7.189a2.046,2.046,0,0,0-2.854,2.847L10.05,13.96a2.051,2.051,0,0,0-2.856,2.861L3.267,20.75a2.051,2.051,0,1,0,.511.5Z" transform="translate(-0.044 -0.027)" fill="#00c48a"/>
      <path id="Path_160496" data-name="Path 160496" d="M45.819,7.161a2.048,2.048,0,0,0-2.852,2.854l-3.926,3.926A2.051,2.051,0,0,0,36.187,16.8l-3.924,3.924a2.047,2.047,0,1,0,.5.5L36.694,17.3a2.048,2.048,0,0,0,2.847-2.854l3.931-3.931A2.054,2.054,0,0,0,46.33,7.654l3.928-3.912A2.051,2.051,0,0,0,52.884.612h0a2.051,2.051,0,0,0-3.132,2.625Z" transform="translate(-22.26 -0.001)" fill="#00c48a"/>
      <path id="Path_160497" data-name="Path 160497" d="M3.509,10.318a2.048,2.048,0,0,0,.234-2.625L7.662,3.767A2.051,2.051,0,0,0,10.283.637,2.052,2.052,0,0,0,7.148,3.262L3.234,7.189a2.051,2.051,0,1,0,.276,3.13Z" transform="translate(-0.008 -0.026)" fill="#00c48a"/>
      <path id="Path_160498" data-name="Path 160498" d="M95.853,58.057a2.034,2.034,0,0,0-1.45.6,2.058,2.058,0,0,0-.234,2.625l-3.924,3.924a2.055,2.055,0,1,0,.5.507l3.926-3.926a2.051,2.051,0,1,0,1.168-3.737Z" transform="translate(-66.689 -41.83)" fill="#00c48a"/>
      <path id="Path_160499" data-name="Path 160499" d="M49.973,29.625a2.053,2.053,0,0,0-.234,2.623l-3.921,3.928a2.046,2.046,0,0,0-2.854,2.847l-3.926,3.931a2.048,2.048,0,0,0-2.854,2.854l-3.926,3.928a2.051,2.051,0,1,0,.507.5l3.928-3.928a2.048,2.048,0,0,0,2.845-2.854l3.924-3.924a2.048,2.048,0,0,0,2.854-2.854l3.933-3.931a2.051,2.051,0,1,0-.278-3.13Z" transform="translate(-22.256 -18.248)" fill="#00c48a"/>
      <path id="Path_160500" data-name="Path 160500" d="M95.908,87.1a2.051,2.051,0,0,0-1.679,3.228l-3.924,3.924a2.051,2.051,0,1,0,.876,1.679,2.03,2.03,0,0,0-.371-1.168l3.926-3.924A2.051,2.051,0,1,0,95.9,87.1Z" transform="translate(-66.743 -62.766)" fill="#00c48a"/>
    </g>
  </g>
</svg>
