<svg xmlns="http://www.w3.org/2000/svg" width="99" height="99" viewBox="0 0 99 99">
  <g id="Group_148681" data-name="Group 148681" transform="translate(-16 -188.068)">
    <circle id="Ellipse_2935" data-name="Ellipse 2935" cx="49.5" cy="49.5" r="49.5" transform="translate(16 188.068)" fill="#f5f5f5"/>
    <g id="Group_148041" data-name="Group 148041" transform="translate(41.662 214.654)">
      <path id="Path_159681" data-name="Path 159681" d="M148.439,85.313a6.257,6.257,0,1,1-6.261,6.253A6.25,6.25,0,0,1,148.439,85.313Zm-40.3,34.209L122.5,96.214a3.686,3.686,0,0,1,5.125,0l9.322,15.122,3.694-6a2.613,2.613,0,0,1,3.645,0l10.193,16.553a4.439,4.439,0,0,1-3.513,6.96H113.078c-4.846,0-7.651-4.928-4.937-9.33Z" transform="translate(-107.082 -85.313)" fill="#e0d9ea" fill-rule="evenodd"/>
    </g>
  </g>
</svg>
