<svg xmlns="http://www.w3.org/2000/svg" width="90" height="90" viewBox="0 0 90 90">
  <g id="Group_148670" data-name="Group 148670" transform="translate(-278 -666)">
    <path id="Path_163856" data-name="Path 163856" d="M45,0A45,45,0,1,1,0,45,45,45,0,0,1,45,0Z" transform="translate(278 666)" fill="#dbf8ee"/>
    <g id="Group_148392" data-name="Group 148392" transform="translate(291.813 689.474)">
      <g id="Group_148397" data-name="Group 148397" transform="translate(12.187 0)">
        <path id="Path_159768" data-name="Path 159768" d="M142.466,43.031a20.725,20.725,0,0,1-11.013-2.506,20.832,20.832,0,0,1-10.472-12.941,20.854,20.854,0,0,1,4-19.668A20.612,20.612,0,0,1,138.626.249,24.933,24.933,0,0,1,141.864,0c1.468-.011,2.4,1.39,1.654,2.465a2.839,2.839,0,0,1-1.11.819,16.144,16.144,0,0,0-8.544,9.434,16.4,16.4,0,0,0,11.295,21.328,15.834,15.834,0,0,0,10.108-.644c.328-.131.654-.269.988-.38a1.51,1.51,0,0,1,1.87.571,1.472,1.472,0,0,1-.154,1.942,37.775,37.775,0,0,1-3.569,3.312,21.172,21.172,0,0,1-10.312,4.1c-.536.07-1.083.056-1.624.081m7.467-5.209c-8.533-.193-15.045-3.867-18.561-11.773-3.536-7.949-1.687-15.216,3.91-21.706A18.172,18.172,0,0,0,123.327,19.2a18.419,18.419,0,0,0,8.209,17.76c6.063,3.972,13.667,3.645,18.4.863" transform="translate(-120.062 0)" fill="#00c48a" stroke="#e9e4f0" stroke-width="1"/>
        <path id="Path_159769" data-name="Path 159769" d="M253.941,38.311a1.574,1.574,0,0,1,1.454.986c.578,1.159,1.129,2.332,1.748,3.47a1.242,1.242,0,0,0,.771.541c1.225.233,2.463.395,3.7.585a1.683,1.683,0,0,1,1.507,1.1,1.593,1.593,0,0,1-.559,1.767c-.91.892-1.823,1.781-2.69,2.714a1.263,1.263,0,0,0-.3.905c.168,1.282.392,2.558.631,3.83a1.669,1.669,0,0,1-.6,1.767,1.58,1.58,0,0,1-1.857.037c-1.173-.653-2.35-1.3-3.51-1.974a.851.851,0,0,0-.962-.018c-1.109.621-2.244,1.2-3.365,1.8a1.637,1.637,0,0,1-1.864-.024,1.7,1.7,0,0,1-.606-1.833c.217-1.228.451-2.455.61-3.691a1.286,1.286,0,0,0-.315-.912c-.8-.867-1.652-1.683-2.488-2.515a1.668,1.668,0,0,1-.593-1.829,1.777,1.777,0,0,1,1.638-1.141c1.259-.175,2.518-.356,3.768-.583a1.009,1.009,0,0,0,.586-.5c.621-1.163,1.206-2.345,1.8-3.523a1.591,1.591,0,0,1,1.494-.964m-2.79,13.337a8.8,8.8,0,0,1,2.779-1.041,7.631,7.631,0,0,1,2.572.97,7.74,7.74,0,0,1-.13-2.728c.256-.805,1.109-1.421,1.794-2.232-2.295.256-3.617-.838-4.2-3a18.935,18.935,0,0,0-1.009,1.8,1.725,1.725,0,0,1-1.425,1.01c-.633.078-1.26.208-1.889.314l-.167.137c2.279,1.012,2.451,2.743,1.676,4.768" transform="translate(-226.906 -32.877)" fill="#00c48a" stroke="#e9e4f0" stroke-width="1"/>
      </g>
    </g>
  </g>
</svg>
