<svg xmlns="http://www.w3.org/2000/svg" width="20.329" height="20.337" viewBox="0 0 20.329 20.337">
  <g id="Path_164128" data-name="Path 164128" transform="matrix(0.985, 0.174, -0.174, 0.985, -66.77, -99.739)" fill="none">
    <path d="M99.7,87.1a2.931,2.931,0,0,0-2.4,4.614L91.69,97.323a2.931,2.931,0,1,0,1.252,2.4,2.9,2.9,0,0,0-.531-1.669l5.612-5.609A2.931,2.931,0,1,0,99.693,87.1Z" stroke="none"/>
    <path d="M 99.70005798339844 87.09998321533203 C 98.60639953613281 87.09998321533203 97.60384368896484 87.70855712890625 97.09922790527344 88.67860412597656 C 96.59468078613281 89.64840698242188 96.67184448242188 90.81865692138672 97.29950714111328 91.71398162841797 L 91.69046783447266 97.32293701171875 C 90.58351898193359 96.54920196533203 89.09119415283203 96.63191986083984 88.07653045654297 97.52320098876953 C 87.06184387207031 98.41448211669922 86.78743743896484 99.88365173339844 87.4119873046875 101.0810928344727 C 88.03654479980469 102.2785263061523 89.39835357666016 102.8943176269531 90.71001434326172 102.5723266601562 C 92.02161407470703 102.2503433227539 92.9434814453125 101.0739212036133 92.94249725341797 99.72340393066406 C 92.9417724609375 99.12556457519531 92.75636291503906 98.54254150390625 92.41164398193359 98.0540771484375 L 98.02401733398438 92.44516754150391 C 99.0614013671875 93.16297912597656 100.4416656494141 93.13661956787109 101.4508819580078 92.37971496582031 C 102.4600830078125 91.62281799316406 102.8718643188477 90.30516052246094 102.4731903076172 89.10831451416016 C 102.0745544433594 87.91146087646484 100.9548873901367 87.10390472412109 99.69337463378906 87.10332489013672 L 99.70005798339844 87.09998321533203 M 99.70005798339844 86.09998321533203 L 99.70085144042969 86.10333251953125 C 101.3923797607422 86.10713958740234 102.8872528076172 87.18698120117188 103.4219512939453 88.79230499267578 C 103.9574279785156 90.39987182617188 103.4064407348633 92.16304779052734 102.0508804321289 93.17971801757812 C 101.3650207519531 93.694091796875 100.5492935180664 93.96598052978516 99.69189453125 93.96598052978516 C 99.17767333984375 93.96598052978516 98.67548370361328 93.86691284179688 98.20741271972656 93.67566680908203 L 93.64637756347656 98.23388671875 C 93.84083557128906 98.70233154296875 93.94187164306641 99.20573425292969 93.94249725341797 99.72218322753906 C 93.94381713867188 101.5392379760742 92.71260833740234 103.1104049682617 90.94841766357422 103.5434951782227 C 90.64122009277344 103.6189041137695 90.32568359375 103.6571426391602 90.01055145263672 103.6571426391602 C 88.54079437255859 103.6571426391602 87.20532989501953 102.8472671508789 86.52535247802734 101.5435409545898 C 85.68527221679688 99.93289184570312 86.05177307128906 97.97071075439453 87.41658782958984 96.77188110351562 C 88.13436126708984 96.14140319824219 89.05596160888672 95.79418182373047 90.01161193847656 95.79418182373047 C 90.53087615966797 95.79418182373047 91.03751373291016 95.89512634277344 91.50923919677734 96.0899658203125 L 96.06571197509766 91.53356170654297 C 95.6256103515625 90.47377014160156 95.66753387451172 89.2637939453125 96.21211242675781 88.21706390380859 C 96.89140319824219 86.91122436523438 98.22791290283203 86.09998321533203 99.70005798339844 86.09998321533203 Z" stroke="none" fill="#e9e3f0"/>
  </g>
</svg>
