<svg xmlns="http://www.w3.org/2000/svg" width="229.882" height="49.903" viewBox="0 0 229.882 49.903">
  <g id="Layer_2" data-name="Layer 2" transform="translate(-0.008 0.016)">
    <g id="Layer_1" data-name="Layer 1" transform="translate(0.008 -0.016)">
      <path id="Path_160472" data-name="Path 160472" d="M167.925,29.855a5.362,5.362,0,0,1-1.772,3.6,5.7,5.7,0,0,1-3.881,1.347,5.547,5.547,0,0,1-4.388-1.866,7.218,7.218,0,0,1-1.623-4.978,7.532,7.532,0,0,1,1.623-5.094A5.457,5.457,0,0,1,162.271,21a5.877,5.877,0,0,1,3.855,1.261,5.041,5.041,0,0,1,1.8,3.411h-2.739a2.452,2.452,0,0,0-.911-1.69,3.06,3.06,0,0,0-1.985-.623,2.758,2.758,0,0,0-2.4,1.22,5.728,5.728,0,0,0-.858,3.358,5.44,5.44,0,0,0,.858,3.284,2.773,2.773,0,0,0,2.381,1.187,2.869,2.869,0,0,0,1.985-.694,2.817,2.817,0,0,0,.911-1.866Z" transform="translate(-97.953 -13.158)" fill="#fff"/>
      <path id="Path_160473" data-name="Path 160473" d="M197.808,34.857a5.944,5.944,0,0,1-4.586-1.84,7.043,7.043,0,0,1-1.7-4.978,7.307,7.307,0,0,1,1.7-5.094,5.835,5.835,0,0,1,4.586-1.866,5.9,5.9,0,0,1,4.59,1.866,7.283,7.283,0,0,1,1.7,5.094,7.061,7.061,0,0,1-1.7,4.978A5.924,5.924,0,0,1,197.808,34.857Zm0-2.321a3.149,3.149,0,0,0,2.612-1.194,5.26,5.26,0,0,0,.948-3.325,5.544,5.544,0,0,0-.948-3.4,3.392,3.392,0,0,0-5.224,0,5.463,5.463,0,0,0-.944,3.4,5.136,5.136,0,0,0,.94,3.325,3.142,3.142,0,0,0,2.616,1.179Z" transform="translate(-120.056 -13.208)" fill="#fff"/>
      <path id="Path_160474" data-name="Path 160474" d="M233.275,35.06H230.73V22h4l2.384,10.366L239.462,22h3.944V35.06h-2.545V24.071L238.41,35.06H235.73l-2.455-11.236Z" transform="translate(-144.635 -13.785)" fill="#fff"/>
      <path id="Path_160475" data-name="Path 160475" d="M271.75,35.06V22h5.467a4.908,4.908,0,0,1,3.4,1.049,3.862,3.862,0,0,1,1.168,3.041,4.222,4.222,0,0,1-1.168,3.217,4.754,4.754,0,0,1-3.4,1.1c-1.056,0-1.967,0-2.739.022V35.06Zm2.728-6.922h2.28a2.545,2.545,0,0,0,1.72-.5,1.94,1.94,0,0,0,.571-1.53,1.709,1.709,0,0,0-.571-1.4,2.672,2.672,0,0,0-1.72-.466h-2.28Z" transform="translate(-170.348 -13.785)" fill="#fff"/>
      <path id="Path_160476" data-name="Path 160476" d="M304.3,35.06V22h9.62v2.321h-6.892V27.1h6.392V29.34h-6.392v3.4h7.2V35.06Z" transform="translate(-190.751 -13.785)" fill="#fff"/>
      <path id="Path_160477" data-name="Path 160477" d="M337.765,35.06V24.306H333.81V22h10.631v2.321H340.5V35.06Z" transform="translate(-209.25 -13.785)" fill="#fff"/>
      <path id="Path_160478" data-name="Path 160478" d="M366.06,35.06V22h2.728V35.06Z" transform="translate(-229.465 -13.785)" fill="#fff"/>
      <path id="Path_160479" data-name="Path 160479" d="M381.135,35.06V24.306H377.18V22h10.635v2.321h-3.948V35.06Z" transform="translate(-236.436 -13.785)" fill="#fff"/>
      <path id="Path_160480" data-name="Path 160480" d="M409.43,35.06V22h2.732V35.06Z" transform="translate(-256.651 -13.785)" fill="#fff"/>
      <path id="Path_160481" data-name="Path 160481" d="M420.8,22h2.9l2.873,9.989L429.457,22h2.814l-4.448,13.06h-2.612Z" transform="translate(-263.779 -13.785)" fill="#fff"/>
      <path id="Path_160482" data-name="Path 160482" d="M456.15,35.06V22h9.62v2.321h-6.892V27.1h6.392V29.34h-6.392v3.4h7.2V35.06Z" transform="translate(-285.938 -13.785)" fill="#fff"/>
      <path id="Path_160483" data-name="Path 160483" d="M490.885,35.06H488.34V22H491.2l5.247,9.172V22H499V35.06h-2.72l-5.4-9.415Z" transform="translate(-306.116 -13.785)" fill="#fff"/>
      <path id="Path_160484" data-name="Path 160484" d="M524,35.06V22h9.62v2.321h-6.9V27.1H533.1V29.34h-6.388v3.4h7.194V35.06Z" transform="translate(-328.469 -13.785)" fill="#fff"/>
      <path id="Path_160485" data-name="Path 160485" d="M562.455,25.275a1.951,1.951,0,0,0-.817-1.493,3.231,3.231,0,0,0-1.944-.552,2.59,2.59,0,0,0-1.631.459,1.53,1.53,0,0,0-.586,1.28.993.993,0,0,0,.612.907,12.379,12.379,0,0,0,2.567.746,9.065,9.065,0,0,1,3.821,1.493,3.4,3.4,0,0,1,.963,2.657,3.467,3.467,0,0,1-1.452,2.926,6.356,6.356,0,0,1-3.926,1.1,5.974,5.974,0,0,1-3.881-1.149,4.265,4.265,0,0,1-1.493-3.269H557.3a2.041,2.041,0,0,0,.746,1.608,3.149,3.149,0,0,0,1.985.56,4.153,4.153,0,0,0,2.045-.422,1.306,1.306,0,0,0,.746-1.172,1.213,1.213,0,0,0-.53-1.086,7.616,7.616,0,0,0-2.209-.724,11.824,11.824,0,0,1-4.161-1.493,2.924,2.924,0,0,1-1.045-2.493,3.683,3.683,0,0,1,1.418-3.049,5.754,5.754,0,0,1,3.732-1.119,5.362,5.362,0,0,1,3.575,1.161,4.343,4.343,0,0,1,1.526,3.123Z" transform="translate(-347.707 -13.149)" fill="#fff"/>
      <path id="Path_160486" data-name="Path 160486" d="M595.005,25.319a1.952,1.952,0,0,0-.817-1.493,3.232,3.232,0,0,0-1.944-.552,2.59,2.59,0,0,0-1.631.459,1.53,1.53,0,0,0-.586,1.28.993.993,0,0,0,.612.907,12.378,12.378,0,0,0,2.567.746,9.1,9.1,0,0,1,3.821,1.493,3.383,3.383,0,0,1,.963,2.657,3.467,3.467,0,0,1-1.452,2.926,6.336,6.336,0,0,1-3.926,1.1,5.955,5.955,0,0,1-3.881-1.149,4.265,4.265,0,0,1-1.493-3.269h2.612a2.041,2.041,0,0,0,.746,1.608,3.149,3.149,0,0,0,1.985.56,4.153,4.153,0,0,0,2.045-.422A1.306,1.306,0,0,0,595.375,31a1.205,1.205,0,0,0-.53-1.086,7.615,7.615,0,0,0-2.209-.724,11.825,11.825,0,0,1-4.161-1.493A2.924,2.924,0,0,1,587.43,25.2a3.683,3.683,0,0,1,1.381-3.023,5.763,5.763,0,0,1,3.732-1.119,5.362,5.362,0,0,1,3.575,1.161,4.344,4.344,0,0,1,1.526,3.123Z" transform="translate(-368.11 -13.193)" fill="#fff"/>
      <path id="Path_160487" data-name="Path 160487" d="M156.26,85.449V74.9h7.5v1.866h-5.3v2.4h4.62v1.814h-4.62v4.478Z" transform="translate(-97.954 -46.945)" fill="#a5a5a5"/>
      <path id="Path_160488" data-name="Path 160488" d="M186.35,85.449V74.9h2.2V85.449Z" transform="translate(-116.815 -46.945)" fill="#a5a5a5"/>
      <path id="Path_160489" data-name="Path 160489" d="M206.06,85.449H204V74.9h2.31l4.232,7.4V74.9H212.6V85.449h-2.194l-4.351-7.6Z" transform="translate(-127.879 -46.945)" fill="#a5a5a5"/>
      <path id="Path_160490" data-name="Path 160490" d="M240.014,85.462V76.786H236.82V74.92H245.4v1.866H242.22v8.676Z" transform="translate(-148.452 -46.957)" fill="#a5a5a5"/>
      <path id="Path_160491" data-name="Path 160491" d="M269.85,85.449V74.9h7.762v1.866h-5.56V79h5.157v1.814h-5.157v2.746h5.806V85.43Z" transform="translate(-169.157 -46.945)" fill="#a5a5a5"/>
      <path id="Path_160492" data-name="Path 160492" d="M310.761,81.259a4.31,4.31,0,0,1-1.429,2.907A4.59,4.59,0,0,1,306.2,85.24a4.478,4.478,0,0,1-3.538-1.493,5.885,5.885,0,0,1-1.314-4.015,6.043,6.043,0,0,1,1.314-4.1,4.433,4.433,0,0,1,3.538-1.515,4.739,4.739,0,0,1,3.108,1.015,4.06,4.06,0,0,1,1.452,2.754h-2.209a1.985,1.985,0,0,0-.746-1.355,2.47,2.47,0,0,0-1.6-.5,2.239,2.239,0,0,0-1.922.978,4.642,4.642,0,0,0-.694,2.72,4.429,4.429,0,0,0,.694,2.646,2.239,2.239,0,0,0,1.922.955,2.306,2.306,0,0,0,1.6-.556,2.269,2.269,0,0,0,.746-1.493Z" transform="translate(-188.902 -46.448)" fill="#a5a5a5"/>
      <path id="Path_160493" data-name="Path 160493" d="M337.39,85.449V74.9h2.2v3.952h4.1V74.9h2.213V85.449H343.7V80.673h-4.1v4.776Z" transform="translate(-211.494 -46.945)" fill="#a5a5a5"/>
      <path id="Path_160494" data-name="Path 160494" d="M34.14,11.424a3.288,3.288,0,1,0,.806.81l6.273-6.273a3.288,3.288,0,1,0-.806-.81Z" transform="translate(-18.157 0.016)" fill="#00c48a"/>
      <path id="Path_160495" data-name="Path 160495" d="M12.27,27.657a3.273,3.273,0,0,0,4.556-4.56l6.273-6.28a3.273,3.273,0,0,0,4.549-4.549L33.932,6a3.276,3.276,0,0,0,4.194-5h0a3.276,3.276,0,0,0-5,4.194l-6.273,6.273a3.269,3.269,0,0,0-4.56,4.549L16.024,22.28a3.276,3.276,0,0,0-4.564,4.571L5.188,33.128A3.276,3.276,0,1,0,6,33.934Z" transform="translate(-0.037 -0.019)" fill="#00c48a"/>
      <path id="Path_160496" data-name="Path 160496" d="M55.848,11.438A3.273,3.273,0,0,0,51.292,16L45.019,22.27a3.276,3.276,0,0,0-4.56,4.56L34.19,33.1a3.27,3.27,0,1,0,.806.806l6.273-6.269a3.273,3.273,0,0,0,4.549-4.56L52.1,16.8a3.282,3.282,0,0,0,4.567-4.571l6.276-6.25a3.276,3.276,0,0,0,4.194-5h0a3.276,3.276,0,0,0-5,4.194Z" transform="translate(-18.207 0.002)" fill="#00c48a"/>
      <path id="Path_160497" data-name="Path 160497" d="M5.6,16.462a3.273,3.273,0,0,0,.373-4.194L12.237,6a3.276,3.276,0,0,0,4.187-5,3.279,3.279,0,0,0-5.008,4.194L5.162,11.462a3.276,3.276,0,1,0,.44,5Z" transform="translate(-0.008 -0.019)" fill="#00c48a"/>
      <path id="Path_160498" data-name="Path 160498" d="M101.14,58.061a3.25,3.25,0,0,0-2.317.959,3.288,3.288,0,0,0-.373,4.194l-6.269,6.269a3.284,3.284,0,1,0,.806.81l6.273-6.273a3.276,3.276,0,1,0,1.866-5.97Z" transform="translate(-54.543 -36.382)" fill="#00c48a"/>
      <path id="Path_160499" data-name="Path 160499" d="M62.487,29.988a3.28,3.28,0,0,0-.373,4.191l-6.265,6.276A3.269,3.269,0,0,0,51.289,45l-6.273,6.28a3.273,3.273,0,0,0-4.56,4.56l-6.273,6.276a3.276,3.276,0,1,0,.81.806l6.276-6.276a3.273,3.273,0,0,0,4.545-4.56l6.269-6.269a3.273,3.273,0,0,0,4.56-4.56l6.284-6.28a3.277,3.277,0,1,0-.444-5Z" transform="translate(-18.204 -18.183)" fill="#00c48a"/>
      <path id="Path_160500" data-name="Path 160500" d="M101.185,87.1A3.276,3.276,0,0,0,98.5,92.257l-6.269,6.269a3.276,3.276,0,1,0,1.4,2.683,3.243,3.243,0,0,0-.593-1.866l6.273-6.269a3.276,3.276,0,1,0,1.866-5.971Z" transform="translate(-54.588 -54.592)" fill="#00c48a"/>
    </g>
  </g>
</svg>
