<svg xmlns="http://www.w3.org/2000/svg" width="280.984" height="60.986" viewBox="0 0 280.984 60.986">
  <g id="Group_148867" data-name="Group 148867" transform="translate(-138.32 -193.205)">
    <g id="Group_148847" data-name="Group 148847" transform="translate(138.32 193.205)">
      <g id="Group_148849" data-name="Group 148849" transform="translate(0 0)">
        <path id="Path_164044" data-name="Path 164044" d="M75.642,82.638a4.01,4.01,0,0,1-.546,5c-1.457,1.6-3.283,1.454-5.149.686l-7.4,7.458c.814,3,.346,4.815-1.517,5.854a4.331,4.331,0,0,1-5.2-.891,4.076,4.076,0,0,1-.2-4.944c1.227-1.764,3.109-2.164,5.613-1.182l7.46-7.515c-.834-1.882-.871-3.758.859-5.313,1.233-1.108,2.752-1.217,4.879-.425l7.5-7.467a4.022,4.022,0,0,1,.572-5.039c1.5-1.522,3.292-1.473,5.039-.7l7.562-7.571a4.223,4.223,0,0,1-.272-3.53,4.283,4.283,0,0,1,1.762-2.084,3.83,3.83,0,0,1,4.97.574,4.187,4.187,0,0,1,.656,4.816c-1.114,1.964-2.837,2.434-5.676,1.621l-7.607,7.443c.728,1.67.908,3.439-.548,4.938-1.515,1.561-3.338,1.568-5.236.7l-7.528,7.58" transform="translate(-41.617 -41.17)" fill="#00a470"/>
        <path id="Path_164045" data-name="Path 164045" d="M6.794,40.357a11.192,11.192,0,0,1,.912-1.195c2.057-2.1,4.135-4.17,6.247-6.292-.939-2-.95-3.9.748-5.438,1.452-1.317,3.137-1.274,4.966-.388,2.5-2.467,5.044-4.9,7.525-7.525a4.117,4.117,0,0,1,.577-5.13c1.482-1.5,3.3-1.486,5.115-.629l7.36-7.7c-.836-2.534-.383-4.342,1.516-5.486a4.147,4.147,0,0,1,5.009.64,4.013,4.013,0,0,1,.508,5c-1.182,1.836-3,2.275-5.637,1.364a88,88,0,0,0-7.526,7.458c.752,1.751.834,3.535-.644,5.066s-3.219,1.422-5,.668a85.042,85.042,0,0,0-7.527,7.418c.662,1.814.938,3.655-.691,5.2-1.5,1.426-3.208,1.527-5.131.532-2.466,2.51-5.065,4.89-7.414,7.5.888,3.011.46,4.723-1.441,5.841A4,4,0,0,1,1.2,46.5,4.051,4.051,0,0,1,.759,41.58C1.944,39.748,3.8,39.3,6.794,40.357" transform="translate(-0.096 -0.005)" fill="#09a571"/>
        <path id="Path_164046" data-name="Path 164046" d="M96.378,7.583,88.9,15.025a4.223,4.223,0,0,1-.571,5.019c-1.511,1.62-3.344,1.529-5.073.772l-7.673,7.4c1.046,1.931.953,3.757-.569,5.263-1.456,1.442-3.227,1.466-5.082.552-2.592,2.38-4.969,4.938-7.4,7.346.8,3.3.367,4.936-1.53,5.955a4.078,4.078,0,0,1-5.545-5.567c1.154-1.931,2.813-2.366,5.868-1.515,2.522-2.383,5-4.846,7.456-7.383-.94-1.9-.9-3.656.612-5.166,1.493-1.488,3.249-1.344,4.872-.72l7.663-7.409c-.789-1.781-.9-3.531.622-5.08s3.265-1.511,5.186-.675c2.552-2.351,4.922-4.854,7.4-7.35a4.72,4.72,0,0,1-.247-4.073A4.052,4.052,0,0,1,96.571.545a4.175,4.175,0,0,1,5.087.825,4.145,4.145,0,0,1,.418,4.832c-1.127,1.82-2.87,2.234-5.7,1.381" transform="translate(-41.617 -0.018)" fill="#09a571"/>
        <path id="Path_164047" data-name="Path 164047" d="M446.544,41.765h.485c.617.35,1.339.209,1.991.425.263.087.4-.158.423-.424h.723c0,1.93.039,3.86-.006,5.789-.065,2.808.105,5.606.246,8.406a.593.593,0,0,0,.221.526q0,.242,0,.485c-.322,0-.643.006-.964,0-1.152-.017-1.406-.267-1.428-1.41-.006-.321,0-.643,0-.964V44.81c-.347.086-.184.475-.451.55l-.185-.449c-.542,2.436-1.042,4.732-1.568,7.023a10.906,10.906,0,0,1-1.374,4.139.475.475,0,0,0-.008.353,1.084,1.084,0,0,0,.192.284c-.181.237-.829.148-.434.751H442.1a2.13,2.13,0,0,1-.985-1.555c-.663-3.186-1.394-6.359-2.115-9.533-.076-.336-.066-.726-.4-.979a2.125,2.125,0,0,0-.124,1.18c-.009,3.225,0,6.45-.016,9.676,0,.378.182.8-.149,1.142V45.1H438V56.562a3.857,3.857,0,0,1-2.584-.061q-.029-5.306-.057-10.612c-.007-1.4,0-2.8,0-4.268h4.792a5.465,5.465,0,0,1,.565,1.929c.492,2.03.946,4.07,1.391,6.111.09.413.345.834.078,1.275-.037-.123.02-.321-.382-.261.454.427-.352,1.206.6,1.456a.186.186,0,0,1,.04.182c-.006.281-.122.589.2.787a.2.2,0,0,1,.041.184c.082.088-.233.51.232.275l.242.1c.048.277-.3.487-.142.778.149.12.413.129.438.034.518-1.976,1.008-3.958,1.5-5.94-.024-.188.155-.23.257-.345a1.474,1.474,0,0,0-.122-2.1,22.536,22.536,0,0,1,.725-3.367,3.649,3.649,0,0,0,.119,1.326l.6-2.286" transform="translate(-330.024 -31.551)" fill="#310075"/>
        <path id="Path_164048" data-name="Path 164048" d="M574.294,41.542h11.613A9.7,9.7,0,0,1,585.9,44.4H577.63a17.536,17.536,0,0,0-.037,3.312h7.634a15.464,15.464,0,0,1,.133,2.746h-7.735v4.211h8.692a10.871,10.871,0,0,1-.008,2.723H574.294Z" transform="translate(-435.343 -31.491)" fill="#310075"/>
        <path id="Path_164049" data-name="Path 164049" d="M15.24,7.616,7.617,15.028c.942,2.558.739,4.3-1.42,5.759a4.064,4.064,0,0,1-5.093-.7,4.012,4.012,0,0,1-.487-4.909c1.113-1.817,2.908-2.254,5.663-1.416l7.432-7.52c-.789-2.925-.333-4.651,1.573-5.688a4.2,4.2,0,0,1,5,.756A4.055,4.055,0,0,1,20.6,6.422c-1.186,1.7-3.013,2.081-5.359,1.194" transform="translate(0 -0.037)" fill="#00a470"/>
        <path id="Path_164050" data-name="Path 164050" d="M179.276,171.471l-7.555,7.435c.889,2.747.435,4.61-1.407,5.728a4.131,4.131,0,0,1-5.1-.719,3.829,3.829,0,0,1-.48-4.879c1.212-1.91,3.02-2.346,5.828-1.344l7.419-7.436a4.338,4.338,0,0,1-.344-3.825,4.257,4.257,0,0,1,1.685-2,4.077,4.077,0,0,1,5.384,5.883c-.988,1.34-2.656,2.466-5.431,1.153" transform="translate(-124.378 -124.226)" fill="#09a571"/>
        <path id="Path_164051" data-name="Path 164051" d="M69.634,7.514l-7.5,7.639c.9,2.587.483,4.41-1.336,5.547a4.11,4.11,0,0,1-5.109-.542,4.053,4.053,0,0,1-.569-5c1.181-1.868,3.081-2.318,5.812-1.342l7.4-7.622c-.752-2.846-.268-4.656,1.589-5.685a4.139,4.139,0,0,1,4.9.681,4.133,4.133,0,0,1,.391,5.22c-1.169,1.7-2.978,2.074-5.57,1.1" transform="translate(-41.316 -0.001)" fill="#00a470"/>
        <path id="Path_164052" data-name="Path 164052" d="M178.914,116.847c-2.351,2.486-4.964,4.809-7.322,7.49a4.677,4.677,0,0,1,.256,3.821,4,4,0,0,1-1.822,2.024,4.1,4.1,0,0,1-5.332-5.9c1.1-1.712,3.117-2.14,5.7-1.21a.855.855,0,0,0,.5-.315q3.532-3.47,7.076-6.963a4.613,4.613,0,0,1-.4-3.93,4.3,4.3,0,0,1,1.815-2.047,4.047,4.047,0,0,1,4.8.655,4.146,4.146,0,0,1,.549,5.122c-1.045,1.745-2.849,2.157-5.82,1.255" transform="translate(-124.328 -82.856)" fill="#09a571"/>
        <path id="Path_164053" data-name="Path 164053" d="M375.123,43.392a.508.508,0,0,1,.42.509c-.567.4-.069.819.033,1.173a10.658,10.658,0,0,1-.034,6.681c-.247.7-.464,1.409-.694,2.114l.017-.02c-.22.2-.97-.01-.531.693.031.186-.094.294-.208.4a18.249,18.249,0,0,1-4.063,1.575,26.846,26.846,0,0,1-2.893.035,4.268,4.268,0,0,1-2.469-.864,6.21,6.21,0,0,1-2.755-3.251,10.687,10.687,0,0,1,0-8.009c1.387-3.516,5.146-5.144,9.234-4.109l-.38.369c.572.03,1.022.632,1.584.09l.265.133c.127.515.335.929.987.785l-.013-.01a.271.271,0,0,0,.264.251l-.018-.017a.266.266,0,0,0,.263.257l-.014-.015c-.046.375.116.543.494.5l-.011-.011a.588.588,0,0,0,.525.742m-1.856,5.085a8.074,8.074,0,0,0-.247-2.157,4.184,4.184,0,0,0-4.042-3.508,4.091,4.091,0,0,0-4.117,3.4,9.993,9.993,0,0,0,.052,4.784c.4,1.732,2.915,3.761,5.122,3.051a3.776,3.776,0,0,0,2.744-2.365,9.918,9.918,0,0,0,.486-3.2" transform="translate(-273.781 -30.334)" fill="#310075"/>
        <path id="Path_164054" data-name="Path 164054" d="M1107.325,52.212a1.955,1.955,0,0,1-.086-1.229,13.08,13.08,0,0,1,3-.044,6.915,6.915,0,0,0,1.141,2.341,10.184,10.184,0,0,0,3.741.335,2.039,2.039,0,0,0,1.921-1.66,1.461,1.461,0,0,0-.82-1.7,8.274,8.274,0,0,0-2.173-.709,21.951,21.951,0,0,1-3.921-1.146,4.286,4.286,0,0,1-1.461-7.155c2.412-2.483,7.708-2.311,9.952.318.764.9,1.249,1.836.537,3.049-.773.425-1.483-.206-2.272-.174-.724-2.02-2.4-2.164-4.127-2.133a2.258,2.258,0,0,0-1.786.883,1.444,1.444,0,0,0,.691,2.4,16.834,16.834,0,0,0,2.791.764,17.206,17.206,0,0,1,3.009.879c2.137.868,2.915,2.126,2.8,4.508a.388.388,0,0,0-.414.335,4.656,4.656,0,0,1-3.341,3.333,8.128,8.128,0,0,1-3.984.294,4.293,4.293,0,0,1-1.589-.178,5.408,5.408,0,0,1-2.511-1.924,1.058,1.058,0,0,0-.713-.4l.009.01c-.059-.473.232-.942.091-1.536l-.484.537" transform="translate(-839.289 -29.931)" fill="#310075"/>
        <path id="Path_164055" data-name="Path 164055" d="M926.1,41.67l4.959,8.567,1.012,1.75.261-.038V41.279c1.124.037,2.063-.231,2.988.138-.192.027-.405-.022-.62.226a4.584,4.584,0,0,1,.193,1.93q.006,4.522,0,9.044c0,.8-.048,1.612.018,2.411.109,1.337-.472,1.9-1.769,1.587A2.982,2.982,0,0,0,932,56.37v.524c-2.086-3.467-4.149-6.946-6.056-10.516-.045-.162-.112-.295-.4-.232a2.785,2.785,0,0,0-.084,1.13c-.007,2.25-.042,4.5.013,6.751.025,1.039-.617,1.828-.694,2.931a8.123,8.123,0,0,0-1.909-.389V41.685c.974.413,2.018-.489,2.8.532l.432-.547" transform="translate(-699.581 -31.247)" fill="#310075"/>
        <path id="Path_164056" data-name="Path 164056" d="M308.421,50.79a5.148,5.148,0,0,1-4.832,5.687,1.647,1.647,0,0,0-1.033.243.973.973,0,0,1-.933.072c-.951-.4-1.99-.419-2.955-.75a4.923,4.923,0,0,1-2.192-1.634,9.479,9.479,0,0,1-1.842-7.055,11.375,11.375,0,0,1,.429-2.247,6.852,6.852,0,0,1,4.333-4.522,6.967,6.967,0,0,1,5.564-.015,6.023,6.023,0,0,1,3.886,5.056,14.032,14.032,0,0,1-3.19.109c-.892-2.216-2.087-3.031-4.08-2.821a3.049,3.049,0,0,0-2.539,1.616,8.139,8.139,0,0,0-.214,7.435,3.318,3.318,0,0,0,3.426,2,3.353,3.353,0,0,0,3.126-2.27,1.149,1.149,0,0,1,1.282-.9c.563,0,1.126,0,1.764,0" transform="translate(-223.313 -30.32)" fill="#310075"/>
        <path id="Path_164057" data-name="Path 164057" d="M514.4,41.3a53.764,53.764,0,0,1,7.453.066,4.424,4.424,0,0,1,4.352,4.673c.123,3.318-1.57,5.213-4.882,5.458-1.321.1-2.65-.068-3.969.116-.686-.007-.471.518-.485.868-.056,1.35.077,2.707-.1,4.155a6.362,6.362,0,0,1-2.332-.155c0-.46,0-.9,0-1.335q-.02-6.923-.04-13.846m2.987,7.4a15.625,15.625,0,0,0,3.628-.02A2.31,2.31,0,0,0,521,44.14a14.9,14.9,0,0,0-3.614.025Z" transform="translate(-389.937 -31.234)" fill="#310075"/>
        <path id="Path_164058" data-name="Path 164058" d="M990.557,42.222l.964,0c.113.225.329.5.526.409.838-.38,1.63.094,2.449.056,1.474-.068,2.953-.023,4.431-.018a3.3,3.3,0,0,1,2.324.437c.262-.319.155-.612.191-.881.651.772.1,1.651.314,2.6H993.4a15.165,15.165,0,0,0-.051,3.4h7.637a14.178,14.178,0,0,1-.181,2.793h-7.5c.055,1.539-.214,2.958.211,4.382h8.557v2.258H991.028a2.842,2.842,0,0,1-.479-2.115q.006-6.663.008-13.326" transform="translate(-750.882 -32.007)" fill="#310075"/>
        <path id="Path_164059" data-name="Path 164059" d="M802.839,56.276c-.357.544-1.075.284-1.209.957a2.328,2.328,0,0,0-1.944-.073,4.307,4.307,0,0,1-1.156-2.216c-1.579-4.387-3.022-8.823-4.508-13.244a1.285,1.285,0,0,1,0-.311,24.743,24.743,0,0,1,3.251-.12c.844,1.621,1.129,3.029.781,3.806l.614.939c.491,2.584,1.611,4.7,2.422,6.994L804.5,41.326h3.4l-5.068,14.951" transform="translate(-601.899 -31.284)" fill="#310075"/>
        <path id="Path_164060" data-name="Path 164060" d="M1054.293,53.565a2.576,2.576,0,0,0,1.52-.946,1.529,1.529,0,0,0-.549-2.565,9.315,9.315,0,0,0-2.069-.644,21.6,21.6,0,0,1-3.92-1.156,4.194,4.194,0,0,1-2.044-6.242,6.371,6.371,0,0,1,.658-.861c1.911-2.208,7.748-2.854,10.263.567a4.828,4.828,0,0,1,.972,2.813c-1.128.222-2.169-.169-3.173-.02a3.673,3.673,0,0,0-4.916-2.08,1.957,1.957,0,0,0-1.083,1.074,1.3,1.3,0,0,0,.837,1.917,15.59,15.59,0,0,0,2.9.813,24.537,24.537,0,0,1,2.9.828c2.289.759,3.437,2.75,2.711,5.506-.749-.559-.484.931-1.188.589-.155-.075-.327.334-.37.543-.119.586-.529.738-1.028.8l-1.15-.747c-.482-.136-.7.546-1.113.432a.888.888,0,0,1-.157-.627" transform="translate(-793.334 -29.81)" fill="#310075"/>
        <path id="Path_164061" data-name="Path 164061" d="M861.5,42.23h.728c.38.7.964.227,1.467.295,2.44.33,4.884.046,7.322.151.274.012.568-.062.829.2.02.2.05.442.065.68.013.22.245.45-.24.826h-6.541c0,.077.005.155.007.233,1.8,0,3.6-.01,5.4.008.378,0,.813-.172,1.121.224h-7.637c.036,1.24-.325,2.364.22,3.472a1.581,1.581,0,0,0,1.322.412c1.248-.009,2.5-.018,3.743,0a6.826,6.826,0,0,1,2.032.109,4.217,4.217,0,0,1-.028,1.765c-.422.02-.815.053-1.208.055q-2.354.009-4.709,0a1.555,1.555,0,0,0-1.425.483v3.892a1.7,1.7,0,0,0,1.5.472c1.932-.005,3.864-.009,5.8,0,.348,0,.728-.11,1.068.207a5.529,5.529,0,0,1-.062,1.954h-8.347c-.037-.182-.028-.431-.306-.382-.168.03-.176.228-.195.381h-.466c-.178-.711-.555-.567-.978-.228l-.723,0a.374.374,0,0,0-.419-.234q0-.129,0-.258c.107-.042.3-.076.309-.125a5.129,5.129,0,0,0-.17-3.037v-2.85c.357-.2.274-.545.274-.854,0-.88-.016-1.76-.026-2.64q0-.887,0-1.774c-.056-.6.287-1.263-.248-1.8q-.015-.45-.029-.9a.747.747,0,0,0,.549-.73" transform="translate(-652.557 -32.013)" fill="#310075"/>
        <path id="Path_164062" data-name="Path 164062" d="M637.7,57.444a20.155,20.155,0,0,1-3.4.03v-13h-4.725a8.547,8.547,0,0,1-.041-2.851h12.895a16.83,16.83,0,0,1,.043,2.734c-1.565.26-3.132-.034-4.771.19Z" transform="translate(-477.144 -31.551)" fill="#310075"/>
        <path id="Path_164063" data-name="Path 164063" d="M385.84,147.136a9.078,9.078,0,0,1,2.35.015l4.679,7.6c.55-2.654.313-5.09.413-7.522a5.21,5.21,0,0,1,2.1-.12v12.1c-.4.286-.822.121-1.208.179a1.645,1.645,0,0,1-1.817-1.029c-1.122-1.945-2.347-3.83-3.538-5.735a.641.641,0,0,0-.553-.421c-.26,2.318.046,4.664-.164,6.971a5.426,5.426,0,0,1-2.264.2Z" transform="translate(-292.486 -111.482)" fill="#a7a7a7"/>
        <path id="Path_164064" data-name="Path 164064" d="M520.017,147.221v11.97c-.452.3-.908.121-1.334.18a1.506,1.506,0,0,1-1.637-.918c-1.34-2.276-2.75-4.51-4.265-6.742-.3,2.5-.09,5-.235,7.529a3.372,3.372,0,0,1-1.893.024c-.318-.833-.434-9.911-.161-12.093a6.649,6.649,0,0,1,2.291-.066l4.814,7.832.248-.076V147.21a3.393,3.393,0,0,1,2.171.011" transform="translate(-386.862 -111.462)" fill="#a7a7a7"/>
        <path id="Path_164065" data-name="Path 164065" d="M716.183,57.34q-.027-5.429-.059-10.859a2.862,2.862,0,0,0-.152-1.4h-4.514a11.71,11.71,0,0,1-.2-2.662h12.875V45.04c-1.089,0-2.239-.011-3.389.006-.468.007-.974-.139-1.381.241-.523.236-.275.7-.277,1.057-.02,3.331-.007,6.662-.018,9.993a1.768,1.768,0,0,1-.247,1.344c-.68.356-1.478-.314-2.228.051-.058.028-.266-.255-.4-.393" transform="translate(-539.165 -32.152)" fill="#310075"/>
        <path id="Path_164066" data-name="Path 164066" d="M446.027,159.25a7.455,7.455,0,0,1-2.222.089.665.665,0,0,1-.124-.835c1.484-3.76,2.972-7.52,4.474-11.316a11.751,11.751,0,0,1,2.627-.153c1.54,4.077,3.275,8.049,4.779,12.2a7.676,7.676,0,0,1-2.481.076c-.6-.827-.655-1.9-1.3-2.753h-4.638c-.485.8-.68,1.79-1.114,2.694m5.078-4.769a37.106,37.106,0,0,0-1.757-4.508,20.542,20.542,0,0,0-1.408,4.508Z" transform="translate(-336.263 -111.459)" fill="#a7a7a7"/>
        <path id="Path_164067" data-name="Path 164067" d="M661.4,159.18l4.689-12.026a8.737,8.737,0,0,1,2.657,0c1.463,4.015,3.352,7.888,4.646,11.91a1.415,1.415,0,0,1-1.185.313c-.359.021-.721,0-1.032,0-.543-.357-.5-.956-.762-1.393s-.252-1.019-.674-1.413H665.1a7.042,7.042,0,0,0-.686,1.72c-.41,1.037-.43,1.088-1.565,1.08a2.567,2.567,0,0,1-1.45-.195m4.3-4.653a17.5,17.5,0,0,0,3.295-.1,28.606,28.606,0,0,0-1.654-4.493l-1.641,4.6" transform="translate(-501.373 -111.473)" fill="#a7a7a7"/>
        <path id="Path_164068" data-name="Path 164068" d="M581.8,149.832a4.175,4.175,0,0,1-2.243.474,3.267,3.267,0,0,0-1.376-1.589,2.872,2.872,0,0,0-4.089,1.875,8.282,8.282,0,0,0-.105,3.817,2.832,2.832,0,0,0,2.451,2.466c1.466.113,2.337-.492,2.993-2.077.03-.073.067-.143.1-.215.959-.142,1.039-.124,2.317.552a4.536,4.536,0,0,1-3.258,3.588,5.527,5.527,0,0,1-6.407-2.409,4.136,4.136,0,0,1-.584-1.568c-.371-2.6-.445-5.121,1.712-7.152a5.248,5.248,0,0,1,3.883-1.311,4.539,4.539,0,0,1,4.557,2.928.945.945,0,0,1,.066.23,3.154,3.154,0,0,1-.019.391" transform="translate(-433.146 -110.89)" fill="#a7a7a7"/>
        <path id="Path_164069" data-name="Path 164069" d="M300.046,147.387h8.236a7.509,7.509,0,0,1,.1,2.028h-5.611a6.673,6.673,0,0,0-.157,2.732h4.712a3.051,3.051,0,0,1,.269,2.11c-1.621.191-3.227-.015-4.986.133v4.97a3.774,3.774,0,0,1-2.568.132Z" transform="translate(-227.45 -111.727)" fill="#aaa"/>
        <path id="Path_164070" data-name="Path 164070" d="M731.142,157.313h5.946a7.7,7.7,0,0,1,.09,2.06h-8.423a83.928,83.928,0,0,1-.147-11.934,3.22,3.22,0,0,1,2.507-.084c.041,3.219,0,6.495.026,9.959" transform="translate(-552.213 -111.55)" fill="#aaa"/>
        <path id="Path_164071" data-name="Path 164071" d="M772.93,41.422a13.978,13.978,0,0,1,2.831-.124.686.686,0,0,1,.285.649q0,7.212,0,14.424a2.311,2.311,0,0,1-.054.354c-.972-.075-2.005.2-2.892-.488-.042-4.928-.009-9.838.119-14.761l-.285-.054" transform="translate(-585.919 -31.292)" fill="#310075"/>
        <path id="Path_164072" data-name="Path 164072" d="M356.467,147.08v12.038a4.675,4.675,0,0,1-2.472.2V147.181a7.332,7.332,0,0,1,2.472-.1" transform="translate(-268.346 -111.454)" fill="#aaa"/>
        <path id="Path_164073" data-name="Path 164073" d="M637.253,159.315a6.871,6.871,0,0,1-2.219-.059V147.289c.689-.418,1.41-.185,2.219-.2Z" transform="translate(-481.387 -111.462)" fill="#a7a7a7"/>
        <path id="Path_164074" data-name="Path 164074" d="M693.855,57.2a15.347,15.347,0,0,1-3.276-.03V41.391a19.033,19.033,0,0,1,3.276-.1Zm-2.717-1.3.852.7c.467-.28,1.016.049,1.426-.332v-14.4c-.677-.44-1.456.371-1.987-.383-.378.723-.565,11.5-.291,14.42" transform="translate(-523.493 -31.286)" fill="#310075"/>
        <path id="Path_164075" data-name="Path 164075" d="M861.355,76.5l.723,0c.252.393.643.193.978.228h9.314a5.529,5.529,0,0,0,.062-1.954c-.34-.317-.721-.205-1.068-.207-1.932-.01-3.864-.007-5.8,0a1.7,1.7,0,0,1-1.5-.472V70.206a1.555,1.555,0,0,1,1.425-.482q2.354.012,4.709,0c.393,0,.786-.035,1.208-.055a4.219,4.219,0,0,0,.028-1.765,6.826,6.826,0,0,0-2.032-.108c-1.247-.021-2.5-.012-3.743,0a1.58,1.58,0,0,1-1.322-.412h7.4a10.859,10.859,0,0,1,.154,2.7h-7.738v4.1c2.862.18,5.739-.028,8.672.12v2.54c-.129.195-.338.177-.535.178q-5.494.018-10.987.028a1.539,1.539,0,0,1-.343-.077.886.886,0,0,0,.387-.468" transform="translate(-652.657 -51.079)" fill="#310075"/>
        <path id="Path_164076" data-name="Path 164076" d="M1056.027,92.038a.888.888,0,0,0,.157.627c.414.114.63-.568,1.113-.432l1.15.747c-.367.754-1,.44-1.574.393-.287.214-.279.683-.741.814-.865,0-1.79,0-2.714,0a1.057,1.057,0,0,1-.9-.249,3.222,3.222,0,0,0-1.876-.775,7.13,7.13,0,0,0-.942-1.742c-.247-.225-.655-.029-.871-.333.116-1.022.609-1.216,2.191-.821.142.623.811,1.109.4,2.033.694-.215,1.257-.141,1.7-.537a4.165,4.165,0,0,0,2.907.274" transform="translate(-795.068 -68.283)" fill="#310075"/>
        <path id="Path_164077" data-name="Path 164077" d="M1050.858,89.1c-.441.4-1,.322-1.7.537.414-.924-.255-1.41-.4-2.033-1.583-.394-2.075-.2-2.191.821.217.3.624.109.872.333a7.125,7.125,0,0,1,.942,1.742,3.222,3.222,0,0,1,1.877.776,1.058,1.058,0,0,0,.9.249c.924,0,1.848,0,2.714,0,.462-.131.453-.6.741-.814.57.046,1.207.361,1.574-.393.5-.066.909-.218,1.028-.8.043-.21.214-.619.37-.543.7.342.439-1.149,1.188-.59a4.144,4.144,0,0,1-2.662,2.908,8.754,8.754,0,0,1-7.371-.012,4.91,4.91,0,0,1-2.889-4.568,12.6,12.6,0,0,1,3.034-.1c.338.62.3,1.378.832,1.866l1.143.63" transform="translate(-792.806 -65.619)" fill="#310075"/>
        <path id="Path_164078" data-name="Path 164078" d="M924.963,41.711l-.432.547c-.78-1.022-1.825-.12-2.8-.532V56.61a8.123,8.123,0,0,1,1.909.389c.077-1.1.72-1.892.694-2.931-.054-2.249-.02-4.5-.013-6.751a2.787,2.787,0,0,1,.084-1.13c.285-.063.352.07.4.232-.668.167-.391.718-.394,1.1-.031,3.055-.026,6.111-.032,9.167a.6.6,0,0,1-.13.517H921.37V41.4a14.717,14.717,0,0,1,3.194-.077.432.432,0,0,1,.4.388" transform="translate(-698.444 -31.287)" fill="#310075"/>
        <path id="Path_164079" data-name="Path 164079" d="M512.867,41.6q.02,6.923.04,13.846c0,.437,0,.875,0,1.335a6.357,6.357,0,0,0,2.332.155c.172-1.447.039-2.8.1-4.155.015-.351-.2-.875.485-.868q-.04,2.409-.08,4.819c-.238.18-.15.44-.166.675a20.683,20.683,0,0,1-2.906.087c-.34-.293-.248-.595-.248-.863q-.009-6.992.009-13.984c0-.374-.272-.938.437-1.048" transform="translate(-388.409 -31.536)" fill="#310075"/>
        <path id="Path_164080" data-name="Path 164080" d="M960.594,57.514V56.99a2.978,2.978,0,0,1,1.146.245c1.3.31,1.879-.251,1.769-1.587-.065-.8-.017-1.607-.017-2.411q0-4.522,0-9.044a4.583,4.583,0,0,0-.193-1.93c.214-.247.428-.2.62-.226a1.316,1.316,0,0,1,.1.341c0,5.088,0,10.177,0,15.446-1.168-.177-2.319.37-3.423-.311" transform="translate(-728.178 -31.866)" fill="#310075"/>
        <path id="Path_164081" data-name="Path 164081" d="M988.733,42.159q0,6.663-.008,13.326A2.844,2.844,0,0,0,989.2,57.6l-.665.211a.757.757,0,0,1-.4-.673c.009-4.948.006-9.9.006-14.754.189-.312.394-.247.588-.226" transform="translate(-749.058 -31.943)" fill="#310075"/>
        <path id="Path_164082" data-name="Path 164082" d="M1109.4,91.616a1.059,1.059,0,0,1,.713.4,5.405,5.405,0,0,0,2.511,1.924,4.289,4.289,0,0,0,1.589.178,8.125,8.125,0,0,0,3.984-.294,4.655,4.655,0,0,0,3.341-3.333.388.388,0,0,1,.414-.335,4.331,4.331,0,0,1-2.934,3.9,8.871,8.871,0,0,1-7.241-.028,4.145,4.145,0,0,1-2.378-2.414" transform="translate(-840.981 -68.346)" fill="#310075"/>
        <path id="Path_164083" data-name="Path 164083" d="M486.71,55.35c.268-.075.1-.464.451-.55v9.789c0,.321-.006.643,0,.964.021,1.142.275,1.393,1.428,1.41.321,0,.643,0,.964,0a.5.5,0,0,1-.074.479H486.71Z" transform="translate(-368.95 -41.541)" fill="#310075"/>
        <path id="Path_164084" data-name="Path 164084" d="M876.016,44.843c-.308-.4-.744-.22-1.121-.224-1.8-.018-3.6-.008-5.4-.008,0-.078-.005-.155-.008-.233h6.541c.486-.376.254-.606.24-.826-.014-.238-.045-.475-.065-.68-.262-.258-.556-.184-.829-.2-2.438-.105-4.882.179-7.322-.151-.5-.068-1.087.4-1.467-.3h10.136v2.5a.678.678,0,0,1-.7.108" transform="translate(-656.912 -32.013)" fill="#310075"/>
        <path id="Path_164085" data-name="Path 164085" d="M860.079,43.354q.014.45.029.9c.073.6-.247,1.258.248,1.8q0,.887,0,1.774c-.311.222-.261.555-.26.869,0,.875.007,1.75.012,2.625v2.85a10.528,10.528,0,0,0-.139,3.162v.258l-.15.564a1.4,1.4,0,0,1-.12-.822q0-6.884,0-13.768a1.29,1.29,0,0,1,.125-.818l.258.6" transform="translate(-651.687 -32.406)" fill="#310075"/>
        <path id="Path_164086" data-name="Path 164086" d="M496.951,56.727a.593.593,0,0,1-.221-.526c-.14-2.8-.311-5.6-.246-8.406.045-1.929.007-3.859.006-5.789l.46-.068Z" transform="translate(-376.35 -31.792)" fill="#310075"/>
        <path id="Path_164087" data-name="Path 164087" d="M417.715,66.046c.23-.7.447-1.415.694-2.113a10.659,10.659,0,0,0,.034-6.681c-.1-.354-.6-.774-.033-1.173a10.021,10.021,0,0,1-.042,9.317c-.135.277-.283.588-.653.651" transform="translate(-316.649 -42.51)" fill="#310075"/>
        <path id="Path_164088" data-name="Path 164088" d="M772.381,41.867l.285.054c-.128,4.923-.161,9.833-.119,14.761.887.69,1.921.413,2.892.488.1.371-.07.517-.424.517h-2.54a.568.568,0,0,1-.258-.6q0-7.216,0-14.433c0-.268-.092-.567.159-.79" transform="translate(-585.37 -31.737)" fill="#310075"/>
        <path id="Path_164089" data-name="Path 164089" d="M435.447,67.4a3.857,3.857,0,0,0,2.584.061V56h.307V68.29a11.96,11.96,0,0,1-2.8.089,1.3,1.3,0,0,1-.1-.98" transform="translate(-330.052 -42.449)" fill="#310075"/>
        <path id="Path_164090" data-name="Path 164090" d="M1004.5,42.078c-.036.269.071.562-.191.881a3.3,3.3,0,0,0-2.324-.437c-1.477-.005-2.957-.05-4.431.018-.819.038-1.612-.437-2.449-.056-.2.089-.413-.185-.526-.409,3.307-.063,6.615-.07,9.922,0" transform="translate(-753.942 -31.857)" fill="#310075"/>
        <path id="Path_164091" data-name="Path 164091" d="M468.971,60.1a1.474,1.474,0,0,1,.123,2.1c-.1.115-.281.157-.257.345-.5,1.981-.986,3.964-1.5,5.94-.025.095-.289.086-.438-.034-.156-.291.19-.5.142-.778a51.491,51.491,0,0,0,1.416-5.636,10.671,10.671,0,0,1,.519-1.932" transform="translate(-353.898 -45.557)" fill="#310075"/>
        <path id="Path_164092" data-name="Path 164092" d="M731.5,66.342c.138.138.347.421.4.393.75-.364,1.548.305,2.228-.051a1.768,1.768,0,0,0,.247-1.344c.011-3.331,0-6.662.018-9.993,0-.355-.245-.821.277-1.057V67.025a18.889,18.889,0,0,1-3.058.06.771.771,0,0,1-.116-.743" transform="translate(-554.478 -41.154)" fill="#310075"/>
        <path id="Path_164093" data-name="Path 164093" d="M479.312,42.154l-.6,2.286a3.649,3.649,0,0,1-.119-1.326c.057-.458-.131-1.1.721-.96" transform="translate(-362.792 -31.94)" fill="#310075"/>
        <path id="Path_164094" data-name="Path 164094" d="M486,42.222c-.02.266-.16.511-.423.424-.652-.216-1.374-.075-1.991-.425H486" transform="translate(-366.585 -32.007)" fill="#310075"/>
        <path id="Path_164095" data-name="Path 164095" d="M462.607,80.465c-.955-.25-.149-1.029-.6-1.457.4-.06.345.137.382.261a1,1,0,0,1,.221,1.2" transform="translate(-350.222 -59.884)" fill="#310075"/>
        <path id="Path_164096" data-name="Path 164096" d="M402.556,41.747c-.562.541-1.011-.06-1.584-.09l.38-.369a2.436,2.436,0,0,1,1.2.46" transform="translate(-303.957 -31.298)" fill="#310075"/>
        <path id="Path_164097" data-name="Path 164097" d="M1107.815,90.407l.484-.537c.141.594-.15,1.064-.091,1.536a1.513,1.513,0,0,1-.393-1" transform="translate(-839.779 -68.126)" fill="#310075"/>
        <path id="Path_164098" data-name="Path 164098" d="M409.6,44.52c-.652.144-.86-.269-.987-.785a1.359,1.359,0,0,1,.987.785" transform="translate(-309.75 -33.153)" fill="#310075"/>
        <path id="Path_164099" data-name="Path 164099" d="M860.495,42.808l-.258-.6c.233-.274.527-.149.806-.126a.747.747,0,0,1-.549.73" transform="translate(-652.103 -31.86)" fill="#310075"/>
        <path id="Path_164100" data-name="Path 164100" d="M415.165,97.885c-.439-.7.311-.495.531-.693a1.5,1.5,0,0,1-.531.693" transform="translate(-314.613 -73.677)" fill="#310075"/>
        <path id="Path_164101" data-name="Path 164101" d="M464.781,86.6c-.321-.2-.2-.506-.2-.787.48.158.234.5.2.787" transform="translate(-352.157 -65.053)" fill="#310075"/>
        <path id="Path_164102" data-name="Path 164102" d="M417.181,51.65a.588.588,0,0,1-.525-.742.691.691,0,0,1,.525.742" transform="translate(-315.84 -38.591)" fill="#310075"/>
        <path id="Path_164103" data-name="Path 164103" d="M860.218,104.666l.15-.564a.374.374,0,0,1,.419.234.886.886,0,0,1-.387.467l-.181-.137" transform="translate(-652.088 -78.914)" fill="#310075"/>
        <path id="Path_164104" data-name="Path 164104" d="M525.579,104.818c.017-.234-.072-.495.166-.675.023.244.23.533-.166.675" transform="translate(-398.413 -78.946)" fill="#310075"/>
        <path id="Path_164105" data-name="Path 164105" d="M415.156,49.4c-.378.047-.54-.12-.494-.5a.918.918,0,0,1,.494.5" transform="translate(-314.329 -37.074)" fill="#310075"/>
        <path id="Path_164106" data-name="Path 164106" d="M465.792,90.105c-.464.234-.15-.187-.232-.275.132.045.25.1.232.275" transform="translate(-352.896 -68.096)" fill="#310075"/>
        <path id="Path_164107" data-name="Path 164107" d="M413.92,48.163a.266.266,0,0,1-.263-.257.316.316,0,0,1,.263.257" transform="translate(-313.573 -36.315)" fill="#310075"/>
        <path id="Path_164108" data-name="Path 164108" d="M412.9,47.189a.271.271,0,0,1-.264-.251.312.312,0,0,1,.264.251" transform="translate(-312.8 -35.582)" fill="#310075"/>
        <path id="Path_164109" data-name="Path 164109" d="M860.681,93.126a10.512,10.512,0,0,1,.139-3.162,5.131,5.131,0,0,1,.17,3.037c0,.05-.2.084-.309.125" transform="translate(-652.4 -68.197)" fill="#310075"/>
        <path id="Path_164110" data-name="Path 164110" d="M861.375,67.236c0-.875-.011-1.75-.012-2.625,0-.314-.051-.647.26-.869.009.88.024,1.76.026,2.64,0,.309.083.655-.274.854" transform="translate(-652.954 -48.32)" fill="#310075"/>
        <path id="Path_164111" data-name="Path 164111" d="M866.537,104.426c-.336-.035-.726.165-.978-.228.423-.338.8-.483.978.228" transform="translate(-656.137 -78.775)" fill="#310075"/>
        <path id="Path_164112" data-name="Path 164112" d="M861.56,50.767c-.5-.543-.175-1.2-.248-1.8.535.538.192,1.2.248,1.8" transform="translate(-652.89 -37.119)" fill="#310075"/>
        <path id="Path_164113" data-name="Path 164113" d="M872.028,104.81h-.5c.019-.153.027-.352.2-.381.278-.049.27.2.306.382" transform="translate(-660.661 -79.156)" fill="#310075"/>
        <path id="Path_164114" data-name="Path 164114" d="M692.48,56.568c-.274-2.916-.087-13.7.291-14.42.531.754,1.31-.057,1.987.383v14.4c-.41.381-.959.052-1.426.332l-.852-.7" transform="translate(-524.835 -31.95)" fill="#310075"/>
      </g>
    </g>
  </g>
</svg>
