<svg xmlns="http://www.w3.org/2000/svg" width="345.053" height="74.892" viewBox="0 0 345.053 74.892">
  <g id="Group_148848" data-name="Group 148848" transform="translate(-138.32 -193.205)">
    <g id="Group_148847" data-name="Group 148847" transform="translate(138.32 193.205)">
      <g id="Group_148849" data-name="Group 148849">
        <path id="Path_164044" data-name="Path 164044" d="M80.371,89.1a4.925,4.925,0,0,1-.67,6.138c-1.789,1.963-4.031,1.786-6.323.843l-9.085,9.159c1,3.689.425,5.913-1.863,7.188a5.319,5.319,0,0,1-6.382-1.095,5.006,5.006,0,0,1-.239-6.072c1.507-2.166,3.817-2.657,6.893-1.452l9.161-9.229c-1.024-2.311-1.069-4.615,1.055-6.524,1.515-1.361,3.379-1.495,5.991-.522l9.206-9.169c-1.106-2.144-1.125-4.328.7-6.187s4.043-1.808,6.188-.864l9.286-9.3a5.186,5.186,0,0,1-.334-4.335,5.26,5.26,0,0,1,2.163-2.559,4.7,4.7,0,0,1,6.1.705,5.142,5.142,0,0,1,.806,5.914c-1.369,2.412-3.484,2.988-6.97,1.991l-9.341,9.14c.894,2.05,1.114,4.224-.672,6.064-1.861,1.917-4.1,1.925-6.43.855L80.371,89.1" transform="translate(-38.588 -38.174)" fill="#00a470"/>
        <path id="Path_164045" data-name="Path 164045" d="M8.315,49.557a13.744,13.744,0,0,1,1.12-1.467c2.526-2.573,5.077-5.12,7.671-7.727-1.153-2.46-1.166-4.787.918-6.678,1.783-1.617,3.852-1.565,6.1-.477,3.068-3.03,6.194-6.018,9.241-9.24-1.142-2.256-1.1-4.47.709-6.3s4.048-1.825,6.281-.773l9.039-9.46C48.364,4.324,48.922,2.1,51.254.7a5.093,5.093,0,0,1,6.151.786,4.928,4.928,0,0,1,.624,6.142C56.577,9.883,54.35,10.422,51.106,9.3a108.071,108.071,0,0,0-9.242,9.159c.924,2.15,1.025,4.341-.791,6.222s-3.953,1.746-6.138.82a104.433,104.433,0,0,0-9.243,9.11c.813,2.228,1.152,4.489-.848,6.385-1.848,1.752-3.94,1.875-6.3.653-3.029,3.082-6.22,6-9.1,9.208,1.09,3.7.565,5.8-1.77,7.172A4.915,4.915,0,0,1,1.447,57.1,4.974,4.974,0,0,1,.9,51.06c1.455-2.25,3.731-2.795,7.411-1.5" transform="translate(-0.089 -0.004)" fill="#09a571"/>
        <path id="Path_164046" data-name="Path 164046" d="M105.836,9.306l-9.187,9.139c1,2.163,1.03,4.309-.7,6.163-1.856,1.99-4.106,1.877-6.23.948L80.3,34.644c1.285,2.371,1.17,4.613-.7,6.464-1.788,1.771-3.963,1.8-6.24.678-3.183,2.922-6.1,6.064-9.089,9.021.988,4.054.45,6.061-1.879,7.313a5.008,5.008,0,0,1-6.809-6.837c1.418-2.371,3.454-2.9,7.207-1.86,3.1-2.927,6.136-5.95,9.156-9.066-1.154-2.334-1.109-4.49.751-6.344,1.834-1.828,3.99-1.65,5.983-.885l9.41-9.1c-.969-2.186-1.1-4.336.764-6.239s4.009-1.855,6.369-.829c3.134-2.887,6.044-5.96,9.09-9.026-.707-1.639-1.114-3.3-.3-5a4.976,4.976,0,0,1,2.066-2.27,5.127,5.127,0,0,1,6.247,1.013,5.09,5.09,0,0,1,.513,5.934c-1.384,2.235-3.524,2.743-7,1.7" transform="translate(-38.588 -0.016)" fill="#09a571"/>
        <path id="Path_164047" data-name="Path 164047" d="M449.094,41.8l.6,0c.758.43,1.645.257,2.445.522.322.107.495-.195.519-.521l.887,0c0,2.37.048,4.741-.007,7.109-.08,3.448.129,6.884.3,10.322a.728.728,0,0,0,.271.646q0,.3,0,.6c-.395,0-.789.008-1.184,0-1.415-.021-1.727-.328-1.753-1.732-.007-.394,0-.789,0-1.184V45.537c-.426.105-.226.583-.554.675l-.227-.551c-.666,2.991-1.28,5.811-1.925,8.624-.4,1.745-.6,3.56-1.687,5.083a.583.583,0,0,0-.01.433,1.332,1.332,0,0,0,.236.349c-.222.291-1.019.182-.533.923h-2.839a2.615,2.615,0,0,1-1.21-1.91c-.814-3.913-1.712-7.809-2.6-11.706-.094-.413-.081-.892-.488-1.2a2.609,2.609,0,0,0-.152,1.449c-.012,3.961,0,7.921-.02,11.882,0,.464.224.983-.183,1.4V45.893h-.376V59.969a4.736,4.736,0,0,1-3.173-.075q-.036-6.516-.07-13.032c-.008-1.719,0-3.438,0-5.241h5.885a6.711,6.711,0,0,1,.693,2.369c.6,2.493,1.162,5,1.708,7.5.111.507.424,1.024.1,1.566-.045-.152.025-.394-.469-.32.558.525-.432,1.481.74,1.788a.228.228,0,0,1,.049.224c-.008.345-.15.723.244.966a.248.248,0,0,1,.05.226c.1.108-.286.626.285.338l.3.123c.059.34-.366.6-.174.955.182.148.507.158.538.042.636-2.426,1.238-4.861,1.847-7.294-.029-.231.19-.283.316-.424a1.81,1.81,0,0,0-.15-2.575,27.675,27.675,0,0,1,.891-4.134,4.481,4.481,0,0,0,.146,1.629l.739-2.808" transform="translate(-306.006 -29.255)" fill="#fafafa"/>
        <path id="Path_164048" data-name="Path 164048" d="M574.294,41.542h14.26a11.907,11.907,0,0,1-.007,3.513H578.391a21.534,21.534,0,0,0-.046,4.067h9.374a18.993,18.993,0,0,1,.163,3.372h-9.5v5.171h10.674a13.352,13.352,0,0,1-.01,3.344H574.294Z" transform="translate(-403.66 -29.199)" fill="#fafafa"/>
        <path id="Path_164049" data-name="Path 164049" d="M18.715,9.342l-9.362,9.1c1.156,3.141.907,5.282-1.743,7.072a4.99,4.99,0,0,1-6.255-.865,4.927,4.927,0,0,1-.6-6.028c1.366-2.232,3.571-2.768,6.954-1.739l9.126-9.234c-.969-3.592-.409-5.712,1.932-6.984a5.163,5.163,0,0,1,6.14.928A4.98,4.98,0,0,1,25.3,7.876c-1.457,2.091-3.7,2.556-6.581,1.466" transform="translate(0 -0.034)" fill="#00a470"/>
        <path id="Path_164050" data-name="Path 164050" d="M182.741,173.2l-9.278,9.131c1.091,3.373.534,5.661-1.727,7.034a5.073,5.073,0,0,1-6.261-.883,4.7,4.7,0,0,1-.589-5.991c1.489-2.345,3.709-2.881,7.156-1.651l9.111-9.132c-.7-1.526-1.187-3.068-.423-4.7a5.228,5.228,0,0,1,2.069-2.452,5.007,5.007,0,0,1,6.611,7.225c-1.213,1.645-3.262,3.029-6.669,1.416" transform="translate(-115.326 -115.185)" fill="#09a571"/>
        <path id="Path_164051" data-name="Path 164051" d="M73.085,9.227,63.87,18.608c1.109,3.177.593,5.416-1.641,6.812a5.047,5.047,0,0,1-6.274-.666,4.977,4.977,0,0,1-.7-6.14c1.45-2.294,3.783-2.846,7.137-1.648l9.084-9.36c-.924-3.5-.329-5.717,1.951-6.981a5.083,5.083,0,0,1,6.017.836,5.075,5.075,0,0,1,.48,6.41c-1.436,2.088-3.657,2.547-6.841,1.357" transform="translate(-38.309 0)" fill="#00a470"/>
        <path id="Path_164052" data-name="Path 164052" d="M182.312,118.568c-2.887,3.053-6.1,5.906-8.992,9.2a5.744,5.744,0,0,1,.314,4.692,4.917,4.917,0,0,1-2.238,2.485,5.035,5.035,0,0,1-6.548-7.247c1.352-2.1,3.828-2.627,7-1.486a1.05,1.05,0,0,0,.613-.386q4.337-4.261,8.689-8.55a5.665,5.665,0,0,1-.487-4.827,5.28,5.28,0,0,1,2.228-2.514,4.97,4.97,0,0,1,5.894.8,5.092,5.092,0,0,1,.674,6.29c-1.284,2.143-3.5,2.649-7.148,1.541" transform="translate(-115.28 -76.826)" fill="#09a571"/>
        <path id="Path_164053" data-name="Path 164053" d="M378.305,44.162a.624.624,0,0,1,.516.625c-.7.491-.085,1.006.04,1.44a13.089,13.089,0,0,1-.042,8.2c-.3.858-.569,1.73-.852,2.6l.021-.025c-.27.244-1.192-.012-.652.851.038.228-.115.361-.256.494a22.41,22.41,0,0,1-4.989,1.934c-1.2.267-2.36-.1-3.552.043a5.241,5.241,0,0,1-3.032-1.061,7.626,7.626,0,0,1-3.384-3.992,13.123,13.123,0,0,1,0-9.835c1.7-4.317,6.319-6.317,11.339-5.045l-.466.453c.7.037,1.255.776,1.945.111l.326.163c.156.633.412,1.141,1.212.964l-.016-.012a.332.332,0,0,0,.324.309l-.022-.021a.327.327,0,0,0,.323.316l-.017-.019c-.057.461.142.666.606.608l-.013-.014a.722.722,0,0,0,.645.911m-2.279,6.245a9.914,9.914,0,0,0-.3-2.649,5.138,5.138,0,0,0-4.963-4.308,5.023,5.023,0,0,0-5.055,4.171,12.272,12.272,0,0,0,.064,5.874c.495,2.127,3.58,4.619,6.29,3.746a4.638,4.638,0,0,0,3.37-2.9,12.179,12.179,0,0,0,.6-3.931" transform="translate(-253.856 -28.126)" fill="#fafafa"/>
        <path id="Path_164054" data-name="Path 164054" d="M1107.36,55.114a2.4,2.4,0,0,1-.105-1.509,16.062,16.062,0,0,1,3.684-.054,8.493,8.493,0,0,0,1.4,2.874,12.507,12.507,0,0,0,4.594.411,2.5,2.5,0,0,0,2.359-2.038,1.794,1.794,0,0,0-1.007-2.085,10.159,10.159,0,0,0-2.668-.871,26.96,26.96,0,0,1-4.816-1.408,5.263,5.263,0,0,1-1.794-8.786c2.962-3.049,9.466-2.838,12.221.39.939,1.1,1.534,2.255.66,3.745-.95.522-1.821-.253-2.791-.214-.889-2.48-2.946-2.657-5.069-2.619a2.773,2.773,0,0,0-2.193,1.085,1.773,1.773,0,0,0,.849,2.951,20.673,20.673,0,0,0,3.427.938,21.128,21.128,0,0,1,3.7,1.079c2.625,1.066,3.58,2.61,3.438,5.537a.477.477,0,0,0-.508.411c-.541,2.189-2.026,3.343-4.1,4.093a9.981,9.981,0,0,1-4.893.361,5.271,5.271,0,0,1-1.951-.218,6.641,6.641,0,0,1-3.084-2.363,1.3,1.3,0,0,0-.876-.5l.011.013c-.073-.58.284-1.157.112-1.886l-.594.66" transform="translate(-778.208 -27.752)" fill="#fafafa"/>
        <path id="Path_164055" data-name="Path 164055" d="M926.837,41.773l6.09,10.521,1.242,2.149.32-.047v-13.1c1.38.046,2.534-.284,3.669.169-.236.034-.5-.027-.761.277a5.63,5.63,0,0,1,.237,2.37q.008,5.553,0,11.106c0,.987-.059,1.979.022,2.96.134,1.642-.58,2.33-2.173,1.949a3.663,3.663,0,0,0-1.408-.3v.644c-2.562-4.257-5.1-8.53-7.437-12.914-.055-.2-.137-.362-.487-.285a3.422,3.422,0,0,0-.1,1.388c-.008,2.764-.051,5.528.016,8.291.031,1.276-.758,2.245-.853,3.6a9.975,9.975,0,0,0-2.344-.478V41.791c1.2.507,2.478-.6,3.436.654l.531-.672" transform="translate(-648.668 -28.973)" fill="#fafafa"/>
        <path id="Path_164056" data-name="Path 164056" d="M311.575,53.251a6.321,6.321,0,0,1-5.934,6.983,2.022,2.022,0,0,0-1.268.3,1.194,1.194,0,0,1-1.146.089c-1.167-.492-2.444-.514-3.628-.921a6.045,6.045,0,0,1-2.692-2.006c-2.081-2.53-2.492-5.529-2.263-8.663a13.969,13.969,0,0,1,.527-2.76,8.415,8.415,0,0,1,5.321-5.553,8.555,8.555,0,0,1,6.833-.018,7.4,7.4,0,0,1,4.773,6.209,17.232,17.232,0,0,1-3.917.133c-1.1-2.721-2.562-3.723-5.011-3.464a3.744,3.744,0,0,0-3.118,1.985,10,10,0,0,0-.263,9.131A4.075,4.075,0,0,0,304,57.147a4.118,4.118,0,0,0,3.839-2.788,1.412,1.412,0,0,1,1.574-1.109c.691,0,1.382,0,2.166,0" transform="translate(-207.061 -28.113)" fill="#fafafa"/>
        <path id="Path_164057" data-name="Path 164057" d="M514.4,41.321a66.022,66.022,0,0,1,9.152.081c3.379.336,5.219,2.354,5.344,5.739.151,4.074-1.928,6.4-6,6.7-1.622.12-3.254-.084-4.874.142-.843-.009-.578.636-.6,1.066-.069,1.658.094,3.325-.118,5.1a7.813,7.813,0,0,1-2.864-.191c0-.565,0-1.1,0-1.64q-.025-8.5-.05-17m3.668,9.085a19.189,19.189,0,0,0,4.456-.024,2.538,2.538,0,0,0,2.292-2.794,2.549,2.549,0,0,0-2.31-2.777,18.3,18.3,0,0,0-4.438.031Z" transform="translate(-361.559 -28.96)" fill="#fafafa"/>
        <path id="Path_164058" data-name="Path 164058" d="M990.559,42.222l1.184,0c.139.276.4.612.646.5,1.029-.467,2,.116,3.008.069,1.81-.083,3.627-.029,5.441-.022.995,0,2.019-.167,2.854.537.322-.392.191-.751.235-1.082.8.948.117,2.027.385,3.2H994.048a18.622,18.622,0,0,0-.062,4.177h9.378a17.408,17.408,0,0,1-.222,3.43h-9.215c.068,1.89-.263,3.633.259,5.381h10.508v2.773H991.138a3.491,3.491,0,0,1-.589-2.6q.008-8.183.01-16.365" transform="translate(-696.235 -29.677)" fill="#fafafa"/>
        <path id="Path_164059" data-name="Path 164059" d="M804.852,59.7c-.438.668-1.32.348-1.485,1.175a2.859,2.859,0,0,0-2.387-.09,5.289,5.289,0,0,1-1.42-2.722c-1.939-5.388-3.712-10.835-5.536-16.264a1.58,1.58,0,0,1,0-.382,30.385,30.385,0,0,1,3.992-.147c1.037,1.991,1.387,3.72.959,4.674l.754,1.153c.6,3.174,1.979,5.775,2.974,8.589q2.1-7.173,4.2-14.345h4.181L804.852,59.7" transform="translate(-558.095 -29.007)" fill="#fafafa"/>
        <path id="Path_164060" data-name="Path 164060" d="M1056.06,56.812a3.163,3.163,0,0,0,1.867-1.162,1.877,1.877,0,0,0-.674-3.15,11.441,11.441,0,0,0-2.541-.79,26.528,26.528,0,0,1-4.814-1.419,5.15,5.15,0,0,1-2.51-7.665,7.82,7.82,0,0,1,.808-1.058c2.346-2.711,9.515-3.5,12.6.7a5.928,5.928,0,0,1,1.193,3.454c-1.385.273-2.663-.207-3.9-.025a4.511,4.511,0,0,0-6.037-2.554,2.4,2.4,0,0,0-1.33,1.319,1.6,1.6,0,0,0,1.027,2.354,19.141,19.141,0,0,0,3.563,1,30.132,30.132,0,0,1,3.561,1.017c2.812.931,4.221,3.377,3.329,6.762-.92-.687-.594,1.144-1.459.724-.191-.092-.4.41-.454.667-.146.72-.649.906-1.262.987l-1.413-.917c-.592-.167-.857.67-1.366.531a1.09,1.09,0,0,1-.193-.77" transform="translate(-735.597 -27.641)" fill="#fafafa"/>
        <path id="Path_164061" data-name="Path 164061" d="M861.649,42.23h.895c.467.859,1.184.279,1.8.362,3,.406,6,.057,8.992.186.336.015.7-.076,1.018.24.025.251.062.542.08.835.017.27.3.553-.3,1.014h-8.032c0,.1.006.19.009.286,2.212,0,4.424-.012,6.636.01.464,0,1-.211,1.377.275h-9.379c.044,1.523-.4,2.9.271,4.264a1.942,1.942,0,0,0,1.623.506c1.532-.011,3.065-.022,4.6,0a8.382,8.382,0,0,1,2.5.133,5.18,5.18,0,0,1-.034,2.167c-.519.025-1,.066-1.484.067q-2.891.011-5.783,0a1.91,1.91,0,0,0-1.75.593V57.95a2.092,2.092,0,0,0,1.837.58c2.372-.007,4.745-.011,7.117,0,.427,0,.894-.135,1.312.255a6.791,6.791,0,0,1-.076,2.4h-10.25c-.045-.224-.034-.53-.376-.469-.206.036-.216.28-.239.468h-.572c-.218-.874-.682-.7-1.2-.28l-.888,0a.459.459,0,0,0-.515-.287q0-.159,0-.317c.132-.051.374-.093.379-.154.1-1.251.449-2.521-.208-3.729l0-3.5c.438-.244.337-.67.336-1.049,0-1.081-.02-2.162-.031-3.242q0-1.089,0-2.178c-.069-.742.352-1.551-.3-2.212l-.036-1.1a.918.918,0,0,0,.674-.9" transform="translate(-605.066 -29.683)" fill="#fafafa"/>
        <path id="Path_164062" data-name="Path 164062" d="M639.588,61.052a24.751,24.751,0,0,1-4.176.037V45.123h-5.8a10.5,10.5,0,0,1-.05-3.5h15.835a20.657,20.657,0,0,1,.053,3.357c-1.922.319-3.846-.042-5.859.234Z" transform="translate(-442.419 -29.255)" fill="#fafafa"/>
        <path id="Path_164063" data-name="Path 164063" d="M385.84,147.152a11.147,11.147,0,0,1,2.886.018l5.746,9.336c.676-3.26.384-6.251.507-9.237a6.4,6.4,0,0,1,2.582-.147v14.861c-.5.351-1.009.149-1.484.22a2.02,2.02,0,0,1-2.231-1.264c-1.377-2.389-2.883-4.7-4.345-7.043a.788.788,0,0,0-.679-.518c-.319,2.847.056,5.728-.2,8.56-.968.47-1.834.174-2.781.246Z" transform="translate(-271.2 -103.368)" fill="#a7a7a7"/>
        <path id="Path_164064" data-name="Path 164064" d="M522.223,147.263v14.7c-.555.367-1.115.149-1.639.222a1.849,1.849,0,0,1-2.01-1.128c-1.645-2.795-3.377-5.539-5.237-8.28-.366,3.071-.11,6.144-.289,9.246a4.141,4.141,0,0,1-2.324.029c-.39-1.023-.533-12.171-.2-14.85a8.166,8.166,0,0,1,2.814-.081l5.912,9.618.3-.093v-9.4a4.167,4.167,0,0,1,2.666.014" transform="translate(-358.707 -103.35)" fill="#a7a7a7"/>
        <path id="Path_164065" data-name="Path 164065" d="M717.308,60.743q-.033-6.667-.073-13.335a3.514,3.514,0,0,0-.187-1.724H711.5c-.4-1.121-.1-2.154-.251-3.269h15.811v3.225c-1.337,0-2.75-.013-4.162.007-.575.008-1.2-.17-1.7.3-.642.29-.338.863-.341,1.3-.025,4.09-.009,8.181-.022,12.272a2.171,2.171,0,0,1-.3,1.65c-.835.437-1.815-.385-2.736.062-.071.034-.327-.313-.5-.482" transform="translate(-499.926 -29.812)" fill="#fafafa"/>
        <path id="Path_164066" data-name="Path 164066" d="M446.583,162.035a9.155,9.155,0,0,1-2.728.109.817.817,0,0,1-.153-1.025c1.823-4.618,3.65-9.234,5.494-13.9a14.432,14.432,0,0,1,3.226-.188c1.891,5.007,4.022,9.884,5.869,14.98a9.427,9.427,0,0,1-3.047.093c-.738-1.016-.8-2.337-1.6-3.381h-5.7c-.6.976-.835,2.2-1.368,3.308m6.236-5.856a45.57,45.57,0,0,0-2.158-5.536c-.688,2.051-1.554,3.635-1.729,5.536Z" transform="translate(-311.791 -103.347)" fill="#a7a7a7"/>
        <path id="Path_164067" data-name="Path 164067" d="M661.4,161.945l5.758-14.768a10.73,10.73,0,0,1,3.263,0c1.8,4.931,4.116,9.687,5.706,14.626a1.738,1.738,0,0,1-1.456.385c-.442.025-.885.006-1.267.006-.666-.439-.611-1.174-.936-1.711s-.31-1.251-.827-1.735h-5.7a8.644,8.644,0,0,0-.842,2.112c-.5,1.273-.528,1.336-1.922,1.326a3.153,3.153,0,0,1-1.78-.239m5.277-5.714a21.486,21.486,0,0,0,4.046-.126,35.14,35.14,0,0,0-2.031-5.517l-2.015,5.643" transform="translate(-464.885 -103.36)" fill="#a7a7a7"/>
        <path id="Path_164068" data-name="Path 164068" d="M584.169,150.642a5.127,5.127,0,0,1-2.755.582,4.012,4.012,0,0,0-1.69-1.951,3.527,3.527,0,0,0-5.021,2.3,10.17,10.17,0,0,0-.129,4.687,3.478,3.478,0,0,0,3.01,3.029c1.8.138,2.87-.6,3.676-2.551.037-.09.082-.176.124-.264,1.177-.174,1.276-.152,2.846.677a5.57,5.57,0,0,1-4,4.407,6.787,6.787,0,0,1-7.868-2.958,5.078,5.078,0,0,1-.718-1.925c-.455-3.192-.546-6.288,2.1-8.782a6.445,6.445,0,0,1,4.769-1.61c2.508.048,4.609,1.034,5.6,3.6a1.159,1.159,0,0,1,.081.282,3.861,3.861,0,0,1-.023.48" transform="translate(-401.623 -102.819)" fill="#a7a7a7"/>
        <path id="Path_164069" data-name="Path 164069" d="M300.046,147.387H310.16a9.221,9.221,0,0,1,.129,2.49H303.4a8.194,8.194,0,0,0-.193,3.355h5.786a3.747,3.747,0,0,1,.33,2.591c-1.991.234-3.963-.019-6.123.163v6.1a4.635,4.635,0,0,1-3.153.162Z" transform="translate(-210.897 -103.596)" fill="#aaa"/>
        <path id="Path_164070" data-name="Path 164070" d="M731.752,159.629h7.3a9.462,9.462,0,0,1,.111,2.53H728.823c-.372-1.072-.49-12.525-.181-14.656.987-.435,1.4-.458,3.079-.1.05,3.953,0,7.976.032,12.229" transform="translate(-512.024 -103.432)" fill="#aaa"/>
        <path id="Path_164071" data-name="Path 164071" d="M772.93,41.454c1.206-.354,2.417-.04,3.476-.152a.842.842,0,0,1,.35.8q0,8.857,0,17.713a2.845,2.845,0,0,1-.066.435c-1.193-.092-2.462.249-3.552-.6-.051-6.051-.011-12.081.146-18.127l-.351-.067" transform="translate(-543.278 -29.015)" fill="#fafafa"/>
        <path id="Path_164072" data-name="Path 164072" d="M357.031,147.092v14.782c-1,.538-1.969.252-3.036.246v-14.9a9,9,0,0,1,3.036-.124" transform="translate(-248.816 -103.343)" fill="#aaa"/>
        <path id="Path_164073" data-name="Path 164073" d="M637.759,162.115a8.438,8.438,0,0,1-2.725-.072v-14.7c.846-.513,1.732-.227,2.725-.247Z" transform="translate(-446.353 -103.35)" fill="#a7a7a7"/>
        <path id="Path_164074" data-name="Path 164074" d="M694.6,60.836a18.846,18.846,0,0,1-4.023-.037V41.419A23.372,23.372,0,0,1,694.6,41.3Zm-3.337-1.6,1.046.858c.573-.344,1.248.061,1.752-.408V42c-.831-.54-1.788.456-2.441-.47-.465.888-.693,14.127-.357,17.708" transform="translate(-485.395 -29.009)" fill="#fafafa"/>
        <path id="Path_164075" data-name="Path 164075" d="M861.444,78.579l.888,0c.31.483.789.237,1.2.28h11.437a6.789,6.789,0,0,0,.076-2.4c-.418-.39-.885-.252-1.312-.255-2.372-.012-4.745-.008-7.118,0a2.093,2.093,0,0,1-1.837-.58V70.85a1.909,1.909,0,0,1,1.75-.592q2.891.014,5.783,0c.482,0,.965-.043,1.484-.067a5.181,5.181,0,0,0,.034-2.167,8.382,8.382,0,0,0-2.5-.133c-1.532-.026-3.065-.014-4.6,0a1.941,1.941,0,0,1-1.623-.505H874.2c.38,1.04.075,2.1.189,3.313h-9.5V75.73c3.514.221,7.048-.035,10.649.147V79c-.158.239-.415.218-.657.218q-6.746.022-13.492.034a1.889,1.889,0,0,1-.422-.095,1.088,1.088,0,0,0,.476-.574" transform="translate(-605.158 -47.362)" fill="#fafafa"/>
        <path id="Path_164076" data-name="Path 164076" d="M1057.667,92.485a1.089,1.089,0,0,0,.193.77c.509.14.774-.7,1.366-.531l1.412.917c-.451.926-1.233.54-1.933.483-.353.263-.342.839-.91,1-1.063,0-2.2,0-3.333,0a1.3,1.3,0,0,1-1.1-.306,3.956,3.956,0,0,0-2.3-.952,8.757,8.757,0,0,0-1.157-2.139c-.3-.276-.8-.035-1.07-.409.143-1.255.747-1.493,2.691-1.009.175.765,1,1.362.488,2.5.852-.264,1.544-.173,2.085-.659a5.114,5.114,0,0,0,3.57.337" transform="translate(-737.205 -63.313)" fill="#fafafa"/>
        <path id="Path_164077" data-name="Path 164077" d="M1052,89.678c-.541.486-1.234.4-2.086.659.509-1.135-.313-1.732-.488-2.5-1.943-.484-2.548-.246-2.691,1.009.266.374.767.133,1.07.409a8.749,8.749,0,0,1,1.157,2.139,3.957,3.957,0,0,1,2.3.953,1.3,1.3,0,0,0,1.1.306c1.135,0,2.27,0,3.332,0,.568-.161.557-.737.91-1,.7.057,1.482.443,1.933-.483.613-.081,1.117-.268,1.262-.987.052-.258.263-.76.454-.667.866.42.54-1.411,1.459-.724a5.089,5.089,0,0,1-3.269,3.57,10.75,10.75,0,0,1-9.051-.014,6.03,6.03,0,0,1-3.548-5.61,15.471,15.471,0,0,1,3.725-.126c.415.761.371,1.693,1.022,2.291l1.4.773" transform="translate(-735.108 -60.843)" fill="#fafafa"/>
        <path id="Path_164078" data-name="Path 164078" d="M925.783,41.81l-.531.672c-.958-1.254-2.241-.147-3.436-.654V60.107a9.975,9.975,0,0,1,2.344.478c.095-1.354.884-2.323.853-3.6-.067-2.762-.024-5.527-.016-8.291a3.422,3.422,0,0,1,.1-1.388c.35-.077.432.086.487.285-.82.2-.48.882-.484,1.345-.038,3.752-.032,7.5-.039,11.257a.741.741,0,0,1-.16.635H921.37v-19.4a18.073,18.073,0,0,1,3.923-.095.53.53,0,0,1,.49.477" transform="translate(-647.614 -29.01)" fill="#fafafa"/>
        <path id="Path_164079" data-name="Path 164079" d="M512.978,41.6q.025,8.5.05,17c0,.537,0,1.074,0,1.64a7.807,7.807,0,0,0,2.864.191c.212-1.777.048-3.444.117-5.1.018-.431-.247-1.074.6-1.066q-.049,2.959-.1,5.917c-.292.221-.184.54-.2.828a25.4,25.4,0,0,1-3.569.107c-.417-.36-.3-.731-.3-1.059q-.011-8.586.011-17.173c0-.459-.334-1.152.537-1.287" transform="translate(-360.142 -29.241)" fill="#fafafa"/>
        <path id="Path_164080" data-name="Path 164080" d="M960.594,61.043V60.4a3.657,3.657,0,0,1,1.408.3c1.594.381,2.307-.308,2.173-1.949-.08-.981-.021-1.973-.021-2.96q0-5.553,0-11.106a5.628,5.628,0,0,0-.237-2.37c.263-.3.525-.244.761-.277a1.615,1.615,0,0,1,.117.419c.006,6.249.005,12.5.005,18.968-1.434-.218-2.848.454-4.2-.382" transform="translate(-675.183 -29.547)" fill="#fafafa"/>
        <path id="Path_164081" data-name="Path 164081" d="M988.868,42.163q0,8.183-.01,16.365a3.492,3.492,0,0,0,.589,2.6l-.816.259a.93.93,0,0,1-.492-.826c.011-6.077.008-12.154.008-18.119.232-.383.484-.3.722-.277" transform="translate(-694.544 -29.618)" fill="#fafafa"/>
        <path id="Path_164082" data-name="Path 164082" d="M1109.4,91.947a1.3,1.3,0,0,1,.876.5,6.638,6.638,0,0,0,3.083,2.363,5.266,5.266,0,0,0,1.951.218,9.977,9.977,0,0,0,4.893-.361c2.077-.751,3.562-1.9,4.1-4.093a.477.477,0,0,1,.509-.411,5.319,5.319,0,0,1-3.6,4.786,10.893,10.893,0,0,1-8.892-.034,5.09,5.09,0,0,1-2.921-2.965" transform="translate(-779.777 -63.372)" fill="#fafafa"/>
        <path id="Path_164083" data-name="Path 164083" d="M486.71,55.475c.329-.092.128-.57.554-.675V66.821c0,.395-.007.789,0,1.184.026,1.4.338,1.711,1.753,1.732.394.006.789,0,1.184,0a.617.617,0,0,1-.091.588h-3.4Z" transform="translate(-342.099 -38.518)" fill="#fafafa"/>
        <path id="Path_164084" data-name="Path 164084" d="M878.168,45.439c-.378-.486-.913-.27-1.377-.275-2.212-.023-4.424-.01-6.636-.01q0-.143-.009-.286h8.032c.6-.462.312-.744.3-1.014-.018-.292-.055-.584-.08-.835-.321-.316-.682-.226-1.019-.24-2.994-.129-6,.22-8.992-.186-.618-.084-1.335.5-1.8-.362h12.448v3.075a.833.833,0,0,1-.861.133" transform="translate(-609.104 -29.683)" fill="#fafafa"/>
        <path id="Path_164085" data-name="Path 164085" d="M860.168,43.492q.018.552.036,1.1c.09.739-.3,1.544.3,2.212q0,1.089,0,2.178c-.382.273-.32.681-.319,1.067,0,1.075.009,2.149.015,3.224q0,1.75,0,3.5a12.922,12.922,0,0,0-.171,3.883l0,.317-.184.693a1.726,1.726,0,0,1-.147-1.009q0-8.454,0-16.908a1.584,1.584,0,0,1,.153-1l.316.743" transform="translate(-604.259 -30.047)" fill="#fafafa"/>
        <path id="Path_164086" data-name="Path 164086" d="M497.061,60.1a.728.728,0,0,1-.271-.646c-.172-3.439-.382-6.874-.3-10.322.055-2.368.008-4.739.007-7.109l.565-.083Z" transform="translate(-348.96 -29.478)" fill="#fafafa"/>
        <path id="Path_164087" data-name="Path 164087" d="M417.715,68.319c.283-.866.549-1.737.852-2.6a13.09,13.09,0,0,0,.042-8.2c-.125-.434-.737-.95-.04-1.44a12.306,12.306,0,0,1-.052,11.441c-.166.34-.347.722-.8.8" transform="translate(-293.604 -39.416)" fill="#fafafa"/>
        <path id="Path_164088" data-name="Path 164088" d="M772.421,41.867l.351.067c-.157,6.046-.2,12.076-.146,18.127,1.089.848,2.359.507,3.552.6.124.455-.086.635-.52.635-1.077,0-2.155,0-3.119,0a.7.7,0,0,1-.317-.734q0-8.861,0-17.723c0-.33-.113-.7.2-.97" transform="translate(-542.768 -29.428)" fill="#fafafa"/>
        <path id="Path_164089" data-name="Path 164089" d="M435.459,70a4.736,4.736,0,0,0,3.173.075V56h.376V71.093a14.687,14.687,0,0,1-3.432.109,1.6,1.6,0,0,1-.117-1.2" transform="translate(-306.032 -39.36)" fill="#fafafa"/>
        <path id="Path_164090" data-name="Path 164090" d="M1006.765,42.09c-.044.33.087.69-.235,1.082-.835-.7-1.859-.533-2.854-.537-1.814-.007-3.631-.062-5.441.022-1.006.046-1.979-.537-3.008-.069-.243.11-.508-.227-.646-.5,4.061-.077,8.123-.086,12.184,0" transform="translate(-699.072 -29.538)" fill="#fafafa"/>
        <path id="Path_164091" data-name="Path 164091" d="M469.454,60.1a1.81,1.81,0,0,1,.151,2.575c-.126.141-.345.193-.316.424-.609,2.433-1.211,4.868-1.847,7.294-.031.116-.355.106-.538-.042-.192-.357.234-.615.174-.956a63.235,63.235,0,0,0,1.739-6.922,13.107,13.107,0,0,1,.637-2.373" transform="translate(-328.142 -42.242)" fill="#fafafa"/>
        <path id="Path_164092" data-name="Path 164092" d="M731.506,69.09c.17.17.426.517.5.482.921-.447,1.9.375,2.736-.062a2.171,2.171,0,0,0,.3-1.65c.013-4.091,0-8.181.022-12.272,0-.436-.3-1.009.34-1.3V69.928a23.2,23.2,0,0,1-3.756.073.948.948,0,0,1-.143-.912" transform="translate(-514.125 -38.159)" fill="#fafafa"/>
        <path id="Path_164093" data-name="Path 164093" d="M479.477,42.159l-.739,2.808a4.481,4.481,0,0,1-.146-1.629c.07-.562-.161-1.35.885-1.179" transform="translate(-336.389 -29.616)" fill="#fafafa"/>
        <path id="Path_164094" data-name="Path 164094" d="M486.554,42.223c-.024.327-.2.628-.519.521-.8-.265-1.687-.092-2.445-.522h2.964" transform="translate(-339.906 -29.677)" fill="#fafafa"/>
        <path id="Path_164095" data-name="Path 164095" d="M462.744,80.8c-1.172-.307-.183-1.264-.74-1.789.493-.073.423.169.469.32a1.222,1.222,0,0,1,.272,1.468" transform="translate(-324.734 -55.526)" fill="#fafafa"/>
        <path id="Path_164096" data-name="Path 164096" d="M402.917,41.852c-.69.665-1.242-.074-1.945-.111l.466-.453a2.992,2.992,0,0,1,1.479.565" transform="translate(-281.836 -29.02)" fill="#fafafa"/>
        <path id="Path_164097" data-name="Path 164097" d="M1107.815,90.53l.594-.66c.173.729-.184,1.306-.112,1.886a1.858,1.858,0,0,1-.482-1.227" transform="translate(-778.662 -63.168)" fill="#fafafa"/>
        <path id="Path_164098" data-name="Path 164098" d="M409.826,44.7c-.8.177-1.056-.33-1.212-.964a1.668,1.668,0,0,1,1.212.964" transform="translate(-287.207 -30.741)" fill="#fafafa"/>
        <path id="Path_164099" data-name="Path 164099" d="M860.553,42.985l-.316-.743c.286-.336.648-.183.99-.154a.918.918,0,0,1-.674.9" transform="translate(-604.644 -29.541)" fill="#fafafa"/>
        <path id="Path_164100" data-name="Path 164100" d="M415.2,98.043c-.54-.864.382-.608.652-.851a1.841,1.841,0,0,1-.652.851" transform="translate(-291.717 -68.314)" fill="#310075"/>
        <path id="Path_164101" data-name="Path 164101" d="M464.832,86.782c-.394-.243-.252-.622-.244-.966.59.194.287.613.244.966" transform="translate(-326.528 -60.318)" fill="#fafafa"/>
        <path id="Path_164102" data-name="Path 164102" d="M417.3,51.819a.722.722,0,0,1-.645-.911.849.849,0,0,1,.645.911" transform="translate(-292.854 -35.782)" fill="#fafafa"/>
        <path id="Path_164103" data-name="Path 164103" d="M860.218,104.795l.184-.693a.459.459,0,0,1,.515.287,1.087,1.087,0,0,1-.476.574l-.223-.168" transform="translate(-604.631 -73.171)" fill="#310075"/>
        <path id="Path_164104" data-name="Path 164104" d="M525.58,104.972c.021-.288-.088-.607.2-.829.028.3.282.655-.2.829" transform="translate(-369.418 -73.2)" fill="#310075"/>
        <path id="Path_164105" data-name="Path 164105" d="M415.271,49.516c-.464.058-.663-.148-.606-.608a1.127,1.127,0,0,1,.606.608" transform="translate(-291.453 -34.376)" fill="#fafafa"/>
        <path id="Path_164106" data-name="Path 164106" d="M465.851,90.168c-.57.288-.184-.23-.285-.338.162.056.307.127.285.338" transform="translate(-327.213 -63.14)" fill="#fafafa"/>
        <path id="Path_164107" data-name="Path 164107" d="M413.98,48.222a.327.327,0,0,1-.323-.316.388.388,0,0,1,.323.316" transform="translate(-290.752 -33.672)" fill="#fafafa"/>
        <path id="Path_164108" data-name="Path 164108" d="M412.962,47.247a.332.332,0,0,1-.324-.309.384.384,0,0,1,.324.309" transform="translate(-290.036 -32.992)" fill="#fafafa"/>
        <path id="Path_164109" data-name="Path 164109" d="M860.692,93.847a12.911,12.911,0,0,1,.171-3.883c.657,1.209.305,2.479.208,3.729,0,.061-.247.1-.379.154" transform="translate(-604.92 -63.234)" fill="#fafafa"/>
        <path id="Path_164110" data-name="Path 164110" d="M861.379,68.033c-.005-1.075-.013-2.149-.015-3.224,0-.386-.063-.794.319-1.067.012,1.081.03,2.161.031,3.242,0,.379.1.8-.336,1.049" transform="translate(-605.434 -44.803)" fill="#fafafa"/>
        <path id="Path_164111" data-name="Path 164111" d="M866.76,104.542c-.412-.043-.892.2-1.2-.28.519-.416.983-.593,1.2.28" transform="translate(-608.385 -73.042)" fill="#310075"/>
        <path id="Path_164112" data-name="Path 164112" d="M861.625,51.178c-.608-.667-.215-1.473-.3-2.212.657.66.236,1.47.3,2.212" transform="translate(-605.375 -34.417)" fill="#fafafa"/>
        <path id="Path_164113" data-name="Path 164113" d="M872.143,104.9h-.616c.024-.188.033-.432.24-.468.342-.06.331.245.376.469" transform="translate(-612.58 -73.396)" fill="#310075"/>
        <path id="Path_164114" data-name="Path 164114" d="M692.51,59.856c-.336-3.581-.107-16.82.357-17.708.652.926,1.609-.07,2.441.47V60.306c-.5.468-1.178.064-1.752.408l-1.047-.858" transform="translate(-486.639 -29.625)" fill="#fafafa"/>
      </g>
    </g>
  </g>
</svg>
