<svg xmlns="http://www.w3.org/2000/svg" width="337.434" height="377.355" viewBox="0 0 337.434 377.355">
  <g id="Group_148987" data-name="Group 148987" transform="translate(-181.038 -3437.266)">
    <path id="Path_164124" data-name="Path 164124" d="M23.685,0h84.843A151.978,151.978,0,0,1,260.505,151.978v67.206H151.978A151.978,151.978,0,0,1,0,67.206V23.685A23.685,23.685,0,0,1,23.685,0Z" transform="translate(181.038 3626.744) rotate(-31)" fill="#310075" opacity="0.5"/>
    <path id="Rectangle_8604" data-name="Rectangle 8604" d="M12,0H136.192a150,150,0,0,1,150,150v90.8a0,0,0,0,1,0,0H151A151,151,0,0,1,0,89.8V12A12,12,0,0,1,12,0Z" transform="translate(232.28 3437.266)" fill="#fff"/>
    <text id="_100_Sharia_compliant" data-name="100% 
Sharia
compliant" transform="translate(311.229 3521.53)" fill="#00c48a" font-size="33" font-family="MaisonNeue-Bold, Maison Neue" font-weight="700" letter-spacing="-0.02em"><tspan x="0" y="0">100%</tspan><tspan y="0" fill="#160034" font-family="MaisonNeue-Medium, Maison Neue" font-weight="500"> </tspan><tspan fill="#160034" font-family="MaisonNeue-Medium, Maison Neue" font-weight="500"><tspan x="0" y="35">Sharia</tspan><tspan x="0" y="70">compliant</tspan></tspan></text>
  </g>
</svg>
