<svg xmlns="http://www.w3.org/2000/svg" width="99.733" height="122.531" viewBox="0 0 99.733 122.531">
  <g id="Group_148936" data-name="Group 148936" transform="matrix(-0.966, -0.259, 0.259, -0.966, 82.779, 122.531)">
    <g id="Group_148937" data-name="Group 148937">
      <path id="Path_164151" data-name="Path 164151" d="M56.522,97.4c4.527-2.9,9.215-5.675,13.749-8.362q2.005-1.189,4.011-2.384A17.919,17.919,0,0,1,76.993,85.6l1.286-.382L77.615,87.7C77,90.114,77.228,90.5,79.64,91.15l3.705,1q3.466.933,6.935,1.855c1.754.467,2.332.129,2.807-1.642l7.77-28.981c.475-1.769.143-2.351-1.614-2.833q-3.5-.949-7.009-1.882l-3.35-.895c-2.705-.724-2.886-.636-3.839,1.953a1.028,1.028,0,0,1-.417.489c-.034.024-.073.05-.118.086l-.3.242-9.248-2.479A18.038,18.038,0,0,0,52.646,69.7a4.285,4.285,0,0,1-1.675,1.976c-1.027.672-2.089,1.321-3.151,1.971-1.547.946-3.146,1.925-4.637,2.981a36.985,36.985,0,0,0-3.919,3.711,1.1,1.1,0,0,0-.111.141,1.149,1.149,0,0,1-.853.586,19.041,19.041,0,0,0-1.961.276c-1.911.335-4.076.713-6.311-.694a15.035,15.035,0,0,0-19.3,3.321,3.163,3.163,0,0,0-.5.75,3.093,3.093,0,0,0,1.459,4.118c2.495,1.2,5.063,2.281,7.245,3.179,1.745.718,3.543,1.4,5.283,2.065q1.168.445,2.336.895l12.565,3.369c.489.072,1.06.149,1.629.228a38.657,38.657,0,0,1,3.9.666A14.544,14.544,0,0,0,56.522,97.4M88.157,61.036l9.292,2.492L90.207,90.539l-9.292-2.491ZM14.238,86.517l-.866-.4.593-.747a9.224,9.224,0,0,1,.8-.89A11.359,11.359,0,0,1,28.1,83.212a10.271,10.271,0,0,0,8.194,1.4,1.96,1.96,0,0,1,.329-.1A2.171,2.171,0,0,1,39.2,86.087a5.149,5.149,0,0,0,2.933,2.672,6.278,6.278,0,0,0,4.857-.175c4.07-1.882,8.126-4,12.049-6.046L61.7,81.15a1.514,1.514,0,0,0,.6-2.082,1.615,1.615,0,0,0-2.4-.533q-3.771,1.9-7.52,3.833l-4.1,2.1a20.964,20.964,0,0,1-2.413,1.15c-2.526.9-3.39-.163-3.685-.881l-.037-.122a5.129,5.129,0,0,1,.433-3.426A3.614,3.614,0,0,1,44.2,79.707l.291-.179q4.225-2.678,8.482-5.313a6.115,6.115,0,0,0,2.661-3.35,14.96,14.96,0,0,1,18.374-9.731c2.087.556,4.193,1.122,6.351,1.7l3.6.966-5.11,19.04-.7-.148c-2.506-.531-4.635.606-6.6,1.819s-3.966,2.407-5.96,3.6c-3.222,1.918-6.552,3.9-9.728,5.988a14.153,14.153,0,0,1-7.82,2.353,13.988,13.988,0,0,1-3.181-.365,124.176,124.176,0,0,1-30.623-9.567" fill="#d7b8fa"/>
      <path id="Path_164152" data-name="Path 164152" d="M4.946,25.146Z" fill="#d7b8fa"/>
      <path id="Path_164153" data-name="Path 164153" d="M16.251,61.049A32.76,32.76,0,1,0,4.463,16.243C3.875,17.268,3.33,18.357,2.8,19.411q-.361.724-.729,1.446L.31,27.427l-.028.484c-.024.44-.048.879-.092,1.316A32.8,32.8,0,0,0,16.251,61.049M4.22,24.956l0-.008.724.2L4.23,24.92a29.494,29.494,0,1,1-.01.036" fill="#d7b8fa"/>
      <path id="Path_164155" data-name="Path 164155" d="M25.147,39.426c2.676.827,5.46-.212,7.419-2.791a15.3,15.3,0,0,0,1.258-2.1c.239-.452.451-.9.665-1.34a21.424,21.424,0,0,1,1.3-2.445A3.609,3.609,0,0,1,39,28.825a3.656,3.656,0,0,1,.76.08,3.925,3.925,0,0,1,2.806,3.52c.5,2.984-.776,5.37-3.7,6.9a1.7,1.7,0,0,0-.96.92,1.616,1.616,0,0,0,0,1.246,1.6,1.6,0,0,0,.116.252,1.427,1.427,0,0,0,1.95.517,14.57,14.57,0,0,0,3.9-2.965c.78-.9,1.6-1.847,3.446-1.216a1.4,1.4,0,0,0,1.1-.177,1.355,1.355,0,0,0,.592-.864l.028-.1a1.514,1.514,0,0,0-1.06-1.859c-.4-.132-.765-.222-1.077-.3L46,34.536,45.963,34a22.57,22.57,0,0,0-.331-2.737,7.059,7.059,0,0,0-5.113-5.422c-2.518-.691-4.784.1-6.749,2.359A21.958,21.958,0,0,0,31.6,31.7c-.249.433-.452.84-.656,1.247a17.156,17.156,0,0,1-1.041,1.871,3.453,3.453,0,0,1-3.613,1.635,3.649,3.649,0,0,1-2.84-3.019,6.38,6.38,0,0,1,3.51-7.414,1.654,1.654,0,0,0,.944-.9,1.6,1.6,0,0,0,0-1.23,1.58,1.58,0,0,0-.146-.294,1.469,1.469,0,0,0-2.029-.446,13.991,13.991,0,0,0-3.669,2.85L22,26.06c-.783.9-1.589,1.829-3.387,1.185l-.08-.019a1.363,1.363,0,0,0-1.618,1.034l-.035.118a1.5,1.5,0,0,0,1.035,1.856c.355.122.682.2,1.027.289l.541.138-.194.724.759-.025.017.61c.008.32.014.588.033.854a7.45,7.45,0,0,0,5.048,6.6" fill="#d7b8fa"/>
    </g>
  </g>
</svg>
