<svg id="Group_148414" data-name="Group 148414" xmlns="http://www.w3.org/2000/svg" xmlns:xlink="http://www.w3.org/1999/xlink" width="40.439" height="40.458" viewBox="0 0 40.439 40.458">
  <defs>
    <clipPath id="clip-path">
      <rect id="Rectangle_8256" data-name="Rectangle 8256" width="40.439" height="40.458" fill="#656565"/>
    </clipPath>
  </defs>
  <g id="Group_148413" data-name="Group 148413" clip-path="url(#clip-path)">
    <path id="Path_159798" data-name="Path 159798" d="M20.773,0a6.553,6.553,0,0,1,2.969,1.917c.435.382.86.776,1.306,1.144a.707.707,0,0,0,.448.165c1.469-.1,2.938-.209,4.4-.348a3.59,3.59,0,0,1,3.81,2.8q.414,1.682.8,3.37a.853.853,0,0,0,.442.6c1.225.717,2.44,1.45,3.655,2.182a3.528,3.528,0,0,1,1.523,4.562c-.476,1.181-.973,2.354-1.441,3.538a.818.818,0,0,0,0,.549c.454,1.147.932,2.285,1.4,3.426a3.566,3.566,0,0,1-1.578,4.739c-1.194.718-2.384,1.441-3.588,2.142a.8.8,0,0,0-.412.57c-.233,1.023-.481,2.044-.727,3.064-.557,2.316-2.072,3.339-4.474,3.075-1.228-.135-2.463-.209-3.7-.282a.921.921,0,0,0-.588.206c-.826.694-1.625,1.419-2.442,2.124a3.518,3.518,0,0,1-4.718.014c-.829-.711-1.637-1.446-2.471-2.15a.866.866,0,0,0-.554-.2c-1.443.089-2.886.2-4.327.314A3.581,3.581,0,0,1,6.7,34.635c-.223-1.105-.528-2.194-.781-3.294a.853.853,0,0,0-.444-.6c-1.2-.7-2.394-1.425-3.6-2.13A3.579,3.579,0,0,1,.066,26.161C.059,26.128.023,26.1,0,26.069V24.884c.124-.341.236-.686.373-1.022.449-1.1.9-2.2,1.365-3.3a.847.847,0,0,0,0-.708C1.151,18.4.578,16.941,0,15.483V14.377a.348.348,0,0,0,.06-.1,3.6,3.6,0,0,1,1.865-2.505q1.638-.945,3.248-1.938a.99.99,0,0,0,.389-.494c.426-1.3.831-2.6,1.232-3.9a3.573,3.573,0,0,1,3.869-2.547c1.425.141,2.855.235,4.284.334a.65.65,0,0,0,.416-.145c.465-.386.912-.794,1.366-1.193A6.438,6.438,0,0,1,19.667,0ZM10.838,5.3C9.6,5.24,9.279,5.47,9,6.357c-.433,1.391-.881,2.778-1.3,4.173a1.793,1.793,0,0,1-.872,1.107c-1.242.714-2.467,1.457-3.7,2.188a1.219,1.219,0,0,0-.588,1.76c.529,1.287,1.047,2.58,1.6,3.857a1.779,1.779,0,0,1,.007,1.514c-.551,1.278-1.072,2.569-1.6,3.856a1.221,1.221,0,0,0,.6,1.786c1.389.827,2.776,1.658,4.168,2.479a1.5,1.5,0,0,1,.742,1.012c.3,1.279.619,2.551.926,3.827.252,1.047.669,1.313,1.752,1.212,1.532-.144,3.068-.242,4.6-.367a1.46,1.46,0,0,1,1.147.414c.921.826,1.854,1.639,2.787,2.451a1.219,1.219,0,0,0,1.882.005c.9-.788,1.814-1.565,2.694-2.377a1.744,1.744,0,0,1,1.434-.488c1.519.138,3.041.247,4.561.377A1.282,1.282,0,0,0,31.435,34c.31-1.289.637-2.574.927-3.867a1.567,1.567,0,0,1,.792-1.066c1.358-.8,2.709-1.617,4.062-2.428.876-.525,1.022-.963.638-1.9-.539-1.311-1.071-2.626-1.62-3.933a1.485,1.485,0,0,1,0-1.217c.549-1.307,1.083-2.621,1.621-3.933a1.244,1.244,0,0,0-.616-1.874q-2.061-1.24-4.129-2.469a1.492,1.492,0,0,1-.742-1.009c-.316-1.368-.654-2.732-1-4.093a1.107,1.107,0,0,0-1.26-.94c-1.653.111-3.306.233-4.957.376a1.523,1.523,0,0,1-1.231-.387c-.9-.808-1.813-1.605-2.72-2.408a1.25,1.25,0,0,0-1.971,0Q17.841,4.08,16.452,5.311a1.382,1.382,0,0,1-1.09.347C13.75,5.522,12.137,5.4,10.838,5.3" fill="#656565"/>
    <path id="Path_159799" data-name="Path 159799" d="M90.852,103.92a13.03,13.03,0,1,1,13.029,13.023A13.032,13.032,0,0,1,90.852,103.92m13.022,10.653A10.662,10.662,0,1,0,93.22,103.883a10.7,10.7,0,0,0,10.654,10.689" transform="translate(-83.663 -83.688)" fill="#656565"/>
    <path id="Path_159800" data-name="Path 159800" d="M171.61,202.265l5.945-5.948c.112-.112.219-.228.337-.333a1.189,1.189,0,0,1,1.7,1.663c-.067.08-.145.153-.219.227q-3.376,3.377-6.752,6.753a1.245,1.245,0,0,1-2.04,0q-2.247-2.246-4.49-4.494a1.2,1.2,0,1,1,1.692-1.679q1.77,1.774,3.544,3.543c.082.082.17.159.285.266" transform="translate(-152.564 -180.184)" fill="#656565"/>
  </g>
</svg>
