<svg id="Group_148412" data-name="Group 148412" xmlns="http://www.w3.org/2000/svg" xmlns:xlink="http://www.w3.org/1999/xlink" width="40.44" height="29.034" viewBox="0 0 40.44 29.034">
  <defs>
    <clipPath id="clip-path">
      <rect id="Rectangle_8255" data-name="Rectangle 8255" width="40.44" height="29.034" fill="#656565" stroke="#f7f7f7" stroke-width="0.5"/>
    </clipPath>
  </defs>
  <g id="Group_148411" data-name="Group 148411" clip-path="url(#clip-path)">
    <path id="Path_159792" data-name="Path 159792" d="M0,25.889V3.158c.03-.083.065-.165.087-.251A3.7,3.7,0,0,1,2.568.2c.243-.085.5-.136.748-.2H37.122a.631.631,0,0,0,.14.065,3.684,3.684,0,0,1,3.175,3.813q0,10.654,0,21.308a3.824,3.824,0,0,1-.036.668,3.727,3.727,0,0,1-3.826,3.179q-16.348,0-32.7,0c-.092,0-.184,0-.276,0A3.767,3.767,0,0,1,.183,26.482c-.065-.2-.123-.4-.184-.593M20.218,2.4H4.028c-1.171,0-1.66.486-1.66,1.646q0,10.476,0,20.953c0,1.157.492,1.645,1.662,1.645H36.41c1.168,0,1.661-.49,1.661-1.647q0-10.457,0-20.913c0-1.211-.477-1.683-1.7-1.683H20.218" transform="translate(0.001 -0.001)" fill="#656565" stroke="#f7f7f7" stroke-width="0.5"/>
    <path id="Path_159793" data-name="Path 159793" d="M83.048,135.836a4.367,4.367,0,1,1,6.612-.071,21.8,21.8,0,0,1,1.584,1.564,5.873,5.873,0,0,1,1.347,3.745,1.2,1.2,0,0,1-1.186,1.3c-.118.011-.237.006-.355.006H81.613c-1.19,0-1.665-.562-1.536-1.734a6.361,6.361,0,0,1,2.97-4.814m6.929,4.135a3.831,3.831,0,0,0-3.786-2.671c-1.678.1-3.319,1.347-3.493,2.671Zm-3.635-9.009a1.977,1.977,0,0,0-.029,3.954,1.977,1.977,0,1,0,.029-3.954" transform="translate(-73.721 -118.417)" fill="#656565" stroke="#f7f7f7" stroke-width="0.5"/>
    <path id="Path_159794" data-name="Path 159794" d="M93.985,66.557H81.508a1.26,1.26,0,0,1-1.318-.8,1.176,1.176,0,0,1,.818-1.542,2.3,2.3,0,0,1,.547-.058q12.438,0,24.876,0a1.274,1.274,0,0,1,1.382.821,1.193,1.193,0,0,1-1.153,1.576c-.407.015-.816,0-1.224,0H93.985" transform="translate(-73.779 -59.079)" fill="#656565" stroke="#f7f7f7" stroke-width="0.5"/>
    <path id="Path_159795" data-name="Path 159795" d="M294.106,146.861c-1.472,0-2.945,0-4.417,0a1.2,1.2,0,0,1-1.208-1.031,1.19,1.19,0,0,1,.827-1.279,1.6,1.6,0,0,1,.465-.058q4.338,0,8.677,0a1.179,1.179,0,0,1,1.223,1.57,1.2,1.2,0,0,1-1.189.8q-2.189,0-4.378,0" transform="translate(-265.64 -133.054)" fill="#656565" stroke="#f7f7f7" stroke-width="0.5"/>
    <path id="Path_159796" data-name="Path 159796" d="M294.147,208.488c1.472,0,2.945-.006,4.417,0a1.181,1.181,0,0,1,.374,2.306,1.561,1.561,0,0,1-.465.064q-4.358.005-8.716,0a1.191,1.191,0,0,1-1.266-1.052,1.206,1.206,0,0,1,.927-1.287,1.841,1.841,0,0,1,.43-.033q2.15,0,4.3,0" transform="translate(-265.652 -191.986)" fill="#656565" stroke="#f7f7f7" stroke-width="0.5"/>
    <path id="Path_159797" data-name="Path 159797" d="M292.885,272.477c1.026,0,2.052-.009,3.078,0a1.179,1.179,0,0,1,1.2.946,1.151,1.151,0,0,1-.6,1.29,1.452,1.452,0,0,1-.6.152c-2.078.011-4.157.017-6.236,0a1.208,1.208,0,0,1-1.241-1,1.17,1.17,0,0,1,.68-1.256,1.737,1.737,0,0,1,.648-.129c1.026-.013,2.052-.006,3.078-.006" transform="translate(-265.633 -250.911)" fill="#656565" stroke="#f7f7f7" stroke-width="0.5"/>
  </g>
</svg>
