<svg id="Group_148416" data-name="Group 148416" xmlns="http://www.w3.org/2000/svg" xmlns:xlink="http://www.w3.org/1999/xlink" width="30.438" height="36.541" viewBox="0 0 30.438 36.541">
  <defs>
    <clipPath id="clip-path">
      <rect id="Rectangle_8257" data-name="Rectangle 8257" width="30.438" height="36.541" fill="#0d0d0d" stroke="#f7f7f7" stroke-width="1"/>
    </clipPath>
  </defs>
  <g id="Group_148415" data-name="Group 148415" clip-path="url(#clip-path)">
    <path id="Path_159801" data-name="Path 159801" d="M6.657,0H17.119a6.48,6.48,0,0,1,.872.626Q23.9,6.514,29.8,12.416a2.063,2.063,0,0,1,.64,1.566c-.01,5.009,0,10.017-.008,15.025a7.584,7.584,0,0,1-7.54,7.528q-7.675.011-15.35,0A7.619,7.619,0,0,1,.217,30.79c-.076-.3-.145-.608-.217-.912V6.661a1.069,1.069,0,0,0,.087-.213A7.5,7.5,0,0,1,4.849.519,15.381,15.381,0,0,1,6.657,0m8.561,3.043c-2.53,0-4.985-.007-7.441,0A4.583,4.583,0,0,0,3.044,7.788q-.01,10.487,0,20.975a4.582,4.582,0,0,0,4.747,4.731q7.416.011,14.831,0a5.408,5.408,0,0,0,1.314-.157,4.525,4.525,0,0,0,3.451-4.5c.014-4.423,0-8.846,0-13.27a3.1,3.1,0,0,0-.038-.338H22.768a7.182,7.182,0,0,1-4.311-1.383A7.417,7.417,0,0,1,15.221,7.6c-.012-1.5,0-3,0-4.559M18.273,5.3c0,.891-.05,1.747.01,2.6a4.439,4.439,0,0,0,3.57,4.144,20.341,20.341,0,0,0,2.933.138,2.126,2.126,0,0,0,.322-.034L18.273,5.3" fill="#0d0d0d" stroke="#f7f7f7" stroke-width="1"/>
    <path id="Path_159802" data-name="Path 159802" d="M87.373,210.516q-2.972,0-5.944,0a1.526,1.526,0,1,1,.011-3.04q5.944,0,11.888,0a1.526,1.526,0,1,1-.011,3.04q-2.972,0-5.944,0" transform="translate(-72.162 -187.681)" fill="#0d0d0d" stroke="#f7f7f7" stroke-width="1"/>
    <path id="Path_159803" data-name="Path 159803" d="M87.366,271.308q2.972,0,5.944,0a1.526,1.526,0,1,1,.026,3.04q-5.968,0-11.935,0a1.524,1.524,0,1,1,.022-3.04q2.972,0,5.944,0" transform="translate(-72.162 -245.424)" fill="#0d0d0d" stroke="#f7f7f7" stroke-width="1"/>
    <path id="Path_159804" data-name="Path 159804" d="M82.83,146.637c-.523,0-1.046.008-1.569,0a1.518,1.518,0,0,1,.017-3.036q1.545-.015,3.091,0a1.518,1.518,0,0,1-.017,3.036c-.507.009-1.014,0-1.522,0" transform="translate(-72.163 -129.892)" fill="#0d0d0d" stroke="#f7f7f7" stroke-width="1"/>
  </g>
</svg>
