<svg id="Group_148401" data-name="Group 148401" xmlns="http://www.w3.org/2000/svg" xmlns:xlink="http://www.w3.org/1999/xlink" width="42.566" height="42.495" viewBox="0 0 42.566 42.495">
  <defs>
    <clipPath id="clip-path">
      <rect id="Rectangle_8249" data-name="Rectangle 8249" width="42.566" height="42.495"/>
    </clipPath>
  </defs>
  <g id="Group_148400" data-name="Group 148400" clip-path="url(#clip-path)">
    <path id="Path_159781" data-name="Path 159781" d="M109.908,0c.21.062.42.122.629.186a4.516,4.516,0,0,1,3.248,4.335c0,.71.017,1.42-.006,2.129a.533.533,0,0,0,.407.617,17.936,17.936,0,0,1,9.707,8.418,18.18,18.18,0,0,1-7.916,24.887,17.94,17.94,0,0,1-15.571.289,1.541,1.541,0,1,1,1.2-2.805c5.653,2.311,10.955,1.652,15.713-2.16a14.447,14.447,0,0,0,5.533-12.1A15,15,0,0,0,110.132,9.305c-6.238-.89-11.239,1.351-14.935,6.463a1.634,1.634,0,0,1-1.83.846,1.532,1.532,0,0,1-.815-2.394,17.247,17.247,0,0,1,7.9-6.592c1.007-.412,1.358-.88,1.245-1.928a6.686,6.686,0,0,1,.135-2.3A4.388,4.388,0,0,1,105.2.107c.12-.032.238-.071.357-.107Zm-5.187,6.335a17.048,17.048,0,0,1,6.024-.02c0-.67.047-1.317-.012-1.955A1.452,1.452,0,0,0,109.3,3.037c-1.039-.03-2.079-.028-3.118,0a1.439,1.439,0,0,0-1.447,1.3c-.064.652-.013,1.315-.013,2" transform="translate(-83.508)"/>
    <path id="Path_159782" data-name="Path 159782" d="M0,272.417a1.783,1.783,0,0,1,1.9-1.147c3.908.032,7.817.011,11.726.016a1.511,1.511,0,0,1,.42,2.965,2.288,2.288,0,0,1-.607.055c-3.846,0-7.692-.016-11.537.016A1.8,1.8,0,0,1,0,273.174Z" transform="translate(0 -245.544)"/>
    <path id="Path_159783" data-name="Path 159783" d="M207.546,183.564c.011-3.8,3.576-5.995,6.55-4.461a.565.565,0,0,0,.733-.089c1.287-1.039,2.574-2.078,3.881-3.091a1.487,1.487,0,0,1,2.42.894,1.512,1.512,0,0,1-.637,1.527c-1.269,1.011-2.53,2.031-3.805,3.034a.519.519,0,0,0-.218.63,4.315,4.315,0,0,1-1.517,4.657,4.558,4.558,0,0,1-7.406-3.1m4.552-1.922a1.512,1.512,0,1,0,1.5,1.523,1.551,1.551,0,0,0-1.5-1.523" transform="translate(-187.863 -158.93)"/>
    <path id="Path_159784" data-name="Path 159784" d="M38.02,210.574q-2.224,0-4.447,0a1.516,1.516,0,1,1,.017-3.023q4.423,0,8.847,0a1.516,1.516,0,1,1-.017,3.023q-2.2,0-4.4,0" transform="translate(-28.922 -187.866)"/>
    <path id="Path_159785" data-name="Path 159785" d="M38.028,335.262c1.482,0,2.965,0,4.447,0a1.513,1.513,0,1,1,0,3.022q-4.471,0-8.942,0a1.513,1.513,0,1,1,0-3.022c1.5,0,3,0,4.494,0" transform="translate(-28.922 -303.466)"/>
  </g>
</svg>
