<svg id="Group_148403" data-name="Group 148403" xmlns="http://www.w3.org/2000/svg" xmlns:xlink="http://www.w3.org/1999/xlink" width="33.811" height="35.063" viewBox="0 0 33.811 35.063">
  <defs>
    <clipPath id="clip-path">
      <rect id="Rectangle_8250" data-name="Rectangle 8250" width="33.811" height="35.063"/>
    </clipPath>
  </defs>
  <g id="Group_148402" data-name="Group 148402" clip-path="url(#clip-path)">
    <path id="Path_159786" data-name="Path 159786" d="M29.787,35.063H4.04A.776.776,0,0,0,3.89,35,4.583,4.583,0,0,1,.188,31.6c-.09-.3-.127-.615-.188-.923V6.924A1.657,1.657,0,0,0,.065,6.7,4.593,4.593,0,0,1,3.248,2.826a5.818,5.818,0,0,1,2.1-.219c.383,0,.767,0,1.17,0,0-.448-.03-.849.01-1.243a1.969,1.969,0,0,1,.245-.8A1.246,1.246,0,0,1,8.145.043a1.269,1.269,0,0,1,.968,1.185c.018.451,0,.9,0,1.36H24.7c0-.243,0-.469,0-.694s-.005-.48.012-.718A1.271,1.271,0,0,1,25.935.01a1.305,1.305,0,0,1,1.377,1.336c.008.416,0,.832,0,1.263.687,0,1.314,0,1.941,0a4.326,4.326,0,0,1,2.557.834,4.62,4.62,0,0,1,2,3.956q.007,5.716,0,11.432,0,5.733,0,11.466a4.669,4.669,0,0,1-3.371,4.586c-.215.063-.433.12-.649.18m1.4-21.4H2.659c-.006.13-.016.241-.016.353q0,8.111,0,16.222a2.813,2.813,0,0,0,.062.678,2.047,2.047,0,0,0,2.109,1.55c8.021,0,16.042-.013,24.063.014A2.2,2.2,0,0,0,31.2,30.165c-.034-5.362-.014-10.724-.014-16.085ZM2.662,11.008h28.51c0-1.329.022-2.629-.008-3.928a1.851,1.851,0,0,0-1.522-1.785,18.057,18.057,0,0,0-2.33-.021c0,.4.013.82,0,1.24a1.307,1.307,0,0,1-1.727,1.22,1.277,1.277,0,0,1-.869-1.156c-.016-.45,0-.9,0-1.348H9.123c0,.189,0,.357,0,.526a6.394,6.394,0,0,1-.051,1.09A1.288,1.288,0,0,1,7.706,7.8,1.323,1.323,0,0,1,6.517,6.515c-.014-.428,0-.857,0-1.306H4.827A2.038,2.038,0,0,0,2.643,7.385c-.006,1.107,0,2.213,0,3.32,0,.1.012.2.019.3" transform="translate(0 0)"/>
  </g>
</svg>
