<svg id="Group_148405" data-name="Group 148405" xmlns="http://www.w3.org/2000/svg" width="40.76" height="40.75" viewBox="0 0 40.76 40.75">
  <g id="Group_148406" data-name="Group 148406">
    <path id="Path_159787" data-name="Path 159787" d="M21.327,40.75h-1.91a1.844,1.844,0,0,0-.265-.072,10.7,10.7,0,0,1-7.56-4.4.638.638,0,0,0-.582-.3c-1.617.013-3.234.007-4.852.006a1.216,1.216,0,0,1-1.382-1.388q0-7.117,0-14.235v-.481c-.138.028-.228.043-.318.064A3.6,3.6,0,0,1,.106,17.372C.076,17.26.036,17.151,0,17.04V15.847a.481.481,0,0,0,.075-.129,3.669,3.669,0,0,1,1.452-2.2Q9.814,7.172,18.095.822A3.566,3.566,0,0,1,22.643.816Q25.377,2.9,28.1,5c.215.165.434.325.706.53V5.062q0-1.869,0-3.738A1.189,1.189,0,0,1,30.11.015q2.247,0,4.495,0a1.208,1.208,0,0,1,1.363,1.368c0,3.062.007,6.124-.009,9.186a.824.824,0,0,0,.378.749c1.071.8,2.159,1.587,3.175,2.456A3.336,3.336,0,0,1,40.6,17.437a3.341,3.341,0,0,1-2.855,2.535,11.628,11.628,0,0,1-1.775.015v.36q0,7.158,0,14.317a1.191,1.191,0,0,1-1.3,1.31c-1.631,0-3.262.01-4.892-.007a.7.7,0,0,0-.646.337,10.482,10.482,0,0,1-5.6,3.967c-.718.211-1.466.322-2.2.478M10.144,33.574a10.7,10.7,0,0,1,.022-7.145,10.406,10.406,0,0,1,4.5-5.582c3.714-2.235,7.578-2.38,11.241-.079,4.761,2.991,6.16,7.419,4.763,12.792h2.905c0-.1.01-.163.01-.229q0-7.4-.011-14.794a.748.748,0,0,0-.273-.507q-5.8-4.462-11.609-8.9l-1.307-1c-.069.044-.1.063-.135.087Q13.825,13.132,7.4,18.045a.622.622,0,0,0-.241.578q0,7.258,0,14.516v.435Zm10.573,4.774a8.383,8.383,0,1,0-8.769-8.005,8.334,8.334,0,0,0,8.008,7.969,1.338,1.338,0,0,1-.779-1.453c.019-.237-.013-.478.007-.715a.431.431,0,0,0-.313-.5,3.439,3.439,0,0,1-1.792-1.829,1.141,1.141,0,0,1,.161-1.232,1.13,1.13,0,0,1,1.13-.426,1.227,1.227,0,0,1,.925.731,1.168,1.168,0,0,0,1.307.672,1.218,1.218,0,0,0,.959-1.243A1.236,1.236,0,0,0,20.283,31.2a3.57,3.57,0,0,1-3.339-2.542A3.352,3.352,0,0,1,18.3,24.75a1.532,1.532,0,0,0,.88-1.782.928.928,0,0,1,0-.159,1.191,1.191,0,0,1,2.381.012c.009.358.018.717,0,1.074a.415.415,0,0,0,.3.473,3.455,3.455,0,0,1,1.8,1.82,1.146,1.146,0,0,1-.142,1.234,1.132,1.132,0,0,1-1.162.439,1.213,1.213,0,0,1-.895-.712,1.187,1.187,0,0,0-1.3-.695,1.219,1.219,0,0,0-.976,1.269,1.245,1.245,0,0,0,1.3,1.094,3.574,3.574,0,0,1,3.35,2.635,3.415,3.415,0,0,1-1.5,3.9,1.286,1.286,0,0,0-.773,1.477,1.346,1.346,0,0,1-.843,1.516M3.613,17.72a6.516,6.516,0,0,0,.915-.5q7.427-5.672,14.841-11.361a1.309,1.309,0,0,1,1.987-.019q5.524,4.231,11.046,8.465c1.336,1.024,2.67,2.051,4.012,3.066a1.183,1.183,0,1,0,1.449-1.87c-.1-.084-.208-.164-.313-.245L21.326,2.828a1.286,1.286,0,0,0-1.918.01q-5.868,4.5-11.739,9Q5.286,13.663,2.9,15.488a1.168,1.168,0,0,0-.433,1.374,1.388,1.388,0,0,0,1.143.857M33.559,9.177V2.426H31.194c0,1.613,0,3.2.006,4.785a.379.379,0,0,0,.137.256c.718.562,1.445,1.114,2.222,1.71" transform="translate(0 0)"/>
  </g>
</svg>
