<svg xmlns="http://www.w3.org/2000/svg" width="37.717" height="36.524" viewBox="0 0 37.717 36.524">
  <g id="Group_148437" data-name="Group 148437" transform="translate(-12.271 -3.934)">
    <g id="Group_148397" data-name="Group 148397" transform="translate(12.187 0)">
      <path id="Path_159769" data-name="Path 159769" d="M262.026,38.311a2.931,2.931,0,0,1,2.708,1.836c1.076,2.159,2.1,4.344,3.255,6.461a2.313,2.313,0,0,0,1.436,1.007c2.281.434,4.587.735,6.883,1.089a3.135,3.135,0,0,1,2.806,2.057,2.967,2.967,0,0,1-1.041,3.29c-1.694,1.66-3.4,3.317-5.009,5.054a2.352,2.352,0,0,0-.555,1.685c.313,2.388.731,4.765,1.175,7.133a3.108,3.108,0,0,1-1.109,3.291,2.943,2.943,0,0,1-3.457.069c-2.185-1.216-4.376-2.42-6.537-3.677a1.584,1.584,0,0,0-1.791-.033c-2.066,1.156-4.179,2.228-6.267,3.345a3.049,3.049,0,0,1-3.471-.044,3.163,3.163,0,0,1-1.128-3.413c.4-2.287.839-4.572,1.136-6.873a2.394,2.394,0,0,0-.587-1.7c-1.487-1.614-3.076-3.135-4.633-4.684-.954-.949-1.6-2.006-1.1-3.406a3.31,3.31,0,0,1,3.05-2.125c2.344-.326,4.689-.662,7.017-1.086a1.879,1.879,0,0,0,1.091-.923c1.157-2.166,2.247-4.368,3.351-6.561a2.963,2.963,0,0,1,2.783-1.8" transform="translate(-242.981 -32.877)" fill="none" stroke="#0c8" stroke-width="3"/>
    </g>
  </g>
</svg>
