<svg xmlns="http://www.w3.org/2000/svg" width="34.466" height="32.528" viewBox="0 0 34.466 32.528">
  <path id="Path_159814" data-name="Path 159814" d="M-7.733,2.926l18.62-30.78L8.037-29.6-10.621,1.292Zm-9.5-21.546c0,5.13,2.584,8.322,6.8,8.322,4.142,0,6.8-3.192,6.8-8.322s-2.66-8.322-6.8-8.322C-14.649-26.942-17.233-23.75-17.233-18.62Zm10.26,0c0,3.382-1.178,5.244-3.458,5.244-2.242,0-3.458-1.862-3.458-5.244s1.216-5.282,3.458-5.282C-8.151-23.9-6.973-22-6.973-18.62ZM3.629-7.98c0,5.13,2.584,8.322,6.8,8.322,4.142,0,6.8-3.192,6.8-8.322s-2.66-8.322-6.8-8.322C6.213-16.3,3.629-13.11,3.629-7.98Zm10.26,0c0,3.382-1.216,5.244-3.458,5.244S6.973-4.6,6.973-7.98s1.216-5.282,3.458-5.282S13.889-11.362,13.889-7.98Z" transform="translate(17.233 29.602)" fill="#160034"/>
</svg>
