<svg xmlns="http://www.w3.org/2000/svg" width="38.357" height="43.052" viewBox="0 0 38.357 43.052">
  <g id="Group_148436" data-name="Group 148436" transform="translate(-12.187)">
    <g id="Group_148397" data-name="Group 148397" transform="translate(12.187 0)">
      <path id="Path_159768" data-name="Path 159768" d="M142.466,43.031a20.725,20.725,0,0,1-11.013-2.506,20.832,20.832,0,0,1-10.472-12.941,20.854,20.854,0,0,1,4-19.668A20.612,20.612,0,0,1,138.626.249,24.933,24.933,0,0,1,141.864,0c1.468-.011,2.4,1.39,1.654,2.465a2.839,2.839,0,0,1-1.11.819,16.144,16.144,0,0,0-8.544,9.434,16.4,16.4,0,0,0,11.295,21.328,15.834,15.834,0,0,0,10.108-.644c.328-.131.654-.269.988-.38a1.51,1.51,0,0,1,1.87.571,1.472,1.472,0,0,1-.154,1.942,37.775,37.775,0,0,1-3.569,3.312,21.172,21.172,0,0,1-10.312,4.1c-.536.07-1.083.056-1.624.081m7.467-5.209c-8.533-.193-15.045-3.867-18.561-11.773-3.536-7.949-1.687-15.216,3.91-21.706A18.172,18.172,0,0,0,123.327,19.2a18.419,18.419,0,0,0,8.209,17.76c6.063,3.972,13.667,3.645,18.4.863" transform="translate(-120.062 0)" fill="#160034"/>
    </g>
  </g>
</svg>
