<svg xmlns="http://www.w3.org/2000/svg" width="51.614" height="21.356" viewBox="0 0 51.614 21.356">
  <path id="Path_159815" data-name="Path 159815" d="M-20.028,4.2h3.077V-3.6h5.137c4.451,0,7.079-2.449,7.079-6.541,0-4.062-2.628-6.571-7.049-6.571h-8.244Zm3.077-10.663v-7.378H-11.9c2.748,0,4.092,1.195,4.092,3.7q0,3.674-4.122,3.674Zm18.1,7.8a4.608,4.608,0,0,1,.418-2.21A3.73,3.73,0,0,1,2.792-2.136c.6-.388,1.762-1.016,3.465-1.882a15.179,15.179,0,0,0,4.689-3.256,5.8,5.8,0,0,0,1.374-3.913c0-3.405-3.017-5.974-7.019-5.974-4.57,0-7.587,2.778-7.826,7.318L.522-9.6C.731-12.62,2.434-14.293,5.3-14.293c2.36,0,3.943,1.284,3.943,3.106,0,1.971-1.165,3.047-5.287,5.108C.97-4.615-.4-3.57-1.24-2.255a7.378,7.378,0,0,0-.986,4.122V4.2H12.022V1.329ZM16.293,4.2h3.077V-3.6h5.137c4.451,0,7.079-2.449,7.079-6.541,0-4.062-2.628-6.571-7.049-6.571H16.293ZM19.369-6.467v-7.378h5.048c2.748,0,4.092,1.195,4.092,3.7q0,3.674-4.122,3.674Z" transform="translate(20.028 17.16)" fill="#160034"/>
</svg>
