<svg id="Group_148655" data-name="Group 148655" xmlns="http://www.w3.org/2000/svg" xmlns:xlink="http://www.w3.org/1999/xlink" width="34.366" height="40.743" viewBox="0 0 34.366 40.743">
  <defs>
    <clipPath id="clip-path">
      <rect id="Rectangle_8494" data-name="Rectangle 8494" width="34.366" height="40.743" fill="#fff"/>
    </clipPath>
  </defs>
  <g id="Group_148654" data-name="Group 148654" clip-path="url(#clip-path)">
    <path id="Path_163869" data-name="Path 163869" d="M16.785,0h.8c.018.019.032.046.054.055q7.609,3.157,15.223,6.3A2.455,2.455,0,0,1,34.366,7.64v9.868a3.244,3.244,0,0,0-.071.381,25.6,25.6,0,0,1-2.4,9.277A26.426,26.426,0,0,1,17.886,40.593,1.706,1.706,0,0,1,16.5,40.6,26.631,26.631,0,0,1,0,15.966q0-3.839,0-7.677A1.638,1.638,0,0,1,1.2,6.5Q6.439,4.323,11.675,2.147C13.38,1.436,15.082.716,16.785,0M3.181,13.1c0,.9,0,1.8,0,2.705a22.527,22.527,0,0,0,.58,5.28A23.237,23.237,0,0,0,16.9,37.269a.761.761,0,0,0,.575,0A23.453,23.453,0,0,0,31.183,15.876c.011-2.122,0-4.244.008-6.365a.474.474,0,0,0-.348-.522Q24.154,6.224,17.47,3.448a.8.8,0,0,0-.554,0Q10.192,6.22,3.476,9.012a.42.42,0,0,0-.3.472c.011,1.207.005,2.414.005,3.62" transform="translate(0)" fill="#fff"/>
    <path id="Path_163870" data-name="Path 163870" d="M123.685,182.91a3.738,3.738,0,0,1,.309-.433q3.216-3.226,6.44-6.443a1.592,1.592,0,0,1,2.72.652,1.5,1.5,0,0,1-.4,1.541q-3.986,4-7.989,7.988a1.556,1.556,0,0,1-2.278-.044q-2.2-2.187-4.387-4.389a1.6,1.6,0,1,1,2.247-2.269c.985.965,1.954,1.947,2.927,2.924.112.112.207.242.405.475" transform="translate(-108.23 -161.518)" fill="#fff"/>
  </g>
</svg>
